<svg width="326" height="206" viewBox="0 0 326 206" fill="none" xmlns="http://www.w3.org/2000/svg">
<rect x="73" y="126" width="252" height="79" rx="39" stroke="url(#paint0_linear_2036_6281)" stroke-width="2"/>
<rect x="1" y="11" width="252" height="79" rx="39" stroke="url(#paint1_linear_2036_6281)" stroke-width="2"/>
<g clip-path="url(#clip0_2036_6281)">
<path d="M103.289 130.59L95.2432 135.238V121.197L103.289 116.548V130.59Z" fill="#FFF4D4"/>
<path d="M111.336 125.939L103.289 130.59V110.351L111.336 105.702V125.939Z" fill="#FFECB3"/>
<path d="M119.384 121.291L111.336 125.94V101.824L119.384 97.1748V121.291Z" fill="#FFE082"/>
<path d="M127.43 116.642L119.384 121.291V101.617L127.43 96.9688V116.642Z" fill="#FFD54F"/>
<path d="M135.476 111.991L127.43 116.642V103.171L135.476 98.5225V111.991Z" fill="#FFCA28"/>
<path d="M143.522 107.343L135.476 111.992V90.2943L143.522 85.6455V107.343Z" fill="#FFB300"/>
<path d="M151.57 102.694L143.522 107.343V78.3664L151.57 73.7158V102.694Z" fill="#FFA000"/>
<path d="M159.617 98.0435L151.57 102.694V65.931L159.617 61.2822V98.0435Z" fill="#FF8F00"/>
<path d="M156.996 49L146.587 60.4543L147.986 61.6207L129.882 89.2249L114.144 90.0056L96.1168 115.26L96.9886 116.164L114.421 91.7449L130.217 90.9492L148.934 62.4108L150.336 63.5753L156.996 49Z" fill="#00ECA0"/>
<path d="M226.555 146.991L226.942 147.342L164.084 111.023C162.937 110.36 160.917 110.445 159.592 111.21L97.9034 146.852L95 145.772V149.366C95 149.789 95.2544 150.192 95.7726 150.493L159.916 187.554C161.063 188.217 163.083 188.133 164.408 187.367L227.904 150.679C228.628 150.259 229 149.72 229 149.211V145.616L226.555 146.991Z" fill="#EEEEEE"/>
<path d="M159.916 183.96L95.7726 146.897C95.2544 146.597 95 146.193 95 145.77C95 145.259 95.3723 144.72 96.0963 144.3L159.592 107.612C160.917 106.846 162.937 106.764 164.084 107.425L228.226 144.485C228.744 144.785 228.998 145.189 228.998 145.613C228.998 146.124 228.626 146.663 227.902 147.08L164.406 183.772C163.083 184.538 161.061 184.62 159.916 183.96Z" fill="white"/>
<path d="M172.912 81.5547C172.912 81.5547 167.481 88.9311 165.972 89.4338C164.747 89.8433 163.93 90.7767 163.464 91.9669C163.032 92.4994 167.358 92.5418 167.358 92.5418C167.674 91.9796 167.924 91.3898 168.032 90.7831L175.596 83.6549L172.912 81.5547Z" fill="#F29979"/>
<path d="M180.878 141.101C186.283 141.101 190.664 138.57 190.664 135.448C190.664 132.325 186.283 129.794 180.878 129.794C175.474 129.794 171.093 132.325 171.093 135.448C171.093 138.57 175.474 141.101 180.878 141.101Z" fill="#E2E2E2"/>
<path d="M180.497 131.844C180.817 130.796 180.571 129.555 179.452 129.192L175.933 133.985C173.342 135.48 172.957 137.829 173.453 138.323C173.949 138.82 176.929 138.414 178.199 136.976C178.869 136.219 178.869 134.025 179.793 132.996V134.604C179.969 134.806 180.266 134.804 180.497 134.604C180.497 134.002 180.499 133.094 180.497 131.844Z" fill="#424242"/>
<path d="M175.922 108.262C174.994 113.99 175.571 113.46 176.274 118.108C176.628 120.446 177.194 126.104 176.864 129.982C176.637 132.636 175.253 134.375 174.689 135.273C174.125 136.17 175.787 137.384 177.33 135.792C178.282 134.81 178.11 133.149 178.869 132.167C179.834 130.921 179.831 130.311 179.675 129.417C178.916 125.073 181.5 120.036 180.732 116.563C179.155 109.433 181.741 106.834 180.296 106.001C178.854 105.165 175.922 108.262 175.922 108.262Z" fill="#F29979"/>
<path d="M185.097 132.383C185.215 131.295 184.7 130.13 183.534 129.981L180.98 135.351C178.718 137.309 178.78 139.687 179.358 140.08C179.937 140.474 182.788 139.515 183.768 137.863C184.283 136.993 183.693 135.207 184.408 134.025L184.397 134.905C184.609 135.069 184.897 135.011 185.088 134.774C185.086 134.182 185.097 133.344 185.097 132.383Z" fill="#424242"/>
<path d="M180.495 108.789C179.596 114.328 180.19 114.409 180.878 118.609C181.26 120.939 182.061 126.69 181.752 130.929C181.559 133.585 180.675 135.668 180.111 136.567C179.547 137.465 181.209 138.678 182.752 137.087C183.704 136.105 183.344 133.92 183.863 132.938C184.601 131.546 184.402 130.837 184.247 129.942C183.488 125.597 186.072 120.561 185.305 117.088C183.728 109.958 186.314 107.359 184.868 106.525C183.424 105.692 180.495 108.789 180.495 108.789Z" fill="#FFAC88"/>
<path d="M186.892 110.934C186.897 111.445 186.92 111.95 186.962 112.446C179.98 116.481 174.309 111.768 174.309 111.768C170.788 94.4585 174.449 93.3935 175.271 87.7737L175.551 87.3282L185.389 86.7979C185.389 86.7979 188.26 92.0442 188.26 95.5022C188.26 100.895 186.839 106.165 186.892 110.934Z" fill="#616161"/>
<path d="M188.321 95.5442C188.321 100.935 186.835 106.192 186.89 110.961C186.346 108.434 186.7 105.738 186.901 103.126C187.196 99.3502 187.21 95.2982 185.182 92.1011C184.586 91.1613 175.78 91.4859 175.272 87.7733L185.451 86.8398C185.449 86.8398 188.321 92.0862 188.321 95.5442Z" fill="#424242"/>
<path d="M192.601 87.4786L189.903 87.4531C190.163 90.1898 190.64 95.9496 190.664 96.1681L190.668 96.1745C189.756 97.7062 190.163 98.296 189.451 100.127C189.811 100.379 190.157 100.078 190.581 98.9112C190.721 98.9812 190.793 99.2315 190.793 99.5307C190.793 99.7301 190.761 99.9507 190.693 100.159C190.399 101.009 190.231 101.567 190.606 101.777C190.67 101.591 190.763 101.296 190.854 101.088C191.255 101.156 190.483 102.927 191.221 102.864C191.28 102.55 191.319 102.446 191.399 102.342C191.463 102.257 191.338 103.016 191.842 103.001C191.955 102.694 192.152 101.432 192.345 101.412C192.527 101.391 192.186 102.127 192.616 102.261C192.881 101.419 192.957 100.825 192.957 100.825L193.044 98.9048C193.044 98.9048 192.565 97.2862 192.326 96.1936C192.478 93.0135 192.576 89.5958 192.601 87.4786Z" fill="#F9AB89"/>
<path d="M189.453 100.127C189.814 100.38 190.159 100.078 190.583 98.9115C190.524 97.9632 191.124 97.6577 190.67 96.1748C189.756 97.7065 190.163 98.2963 189.453 100.127Z" fill="#F29979"/>
<path d="M171.689 82.7816C171.803 83.9845 173.012 85.164 174.254 85.321L176.024 82.5143L178.271 78.9142L174.477 76.0205L172.893 81.1481L171.689 82.7816Z" fill="#38A8C5"/>
<path d="M175.079 73.0781C175.079 73.0781 176.196 77.6881 181.955 73.4176L180.092 89.2162C180.092 89.2162 174.977 89.7593 174.909 86.437C174.867 84.3304 175.079 84.0631 174.468 81.0124C173.86 77.9618 175.079 73.0781 175.079 73.0781Z" fill="white"/>
<path d="M177.923 69.6202C177.923 69.6202 175.717 71.0352 174.943 74.909C174.604 76.604 175.7 80.6709 175.689 82.6396C175.655 88.6752 174.99 90.4721 173.249 89.5896C174.063 87.8266 174.407 86.9165 174.4 85.6903C174.366 78.8761 172.198 79.8244 172.435 76.604C172.6 74.3659 173.925 74.0943 174.332 71.9941C174.663 70.2821 174.4 66.5695 178.602 67.1805C183.032 67.8233 177.923 69.6202 177.923 69.6202Z" fill="#5ACEE6"/>
<path d="M174.994 77.3674C174.994 77.3674 174.063 72.6492 176.094 69.1912L177.088 69.2824L176.817 68.175C176.817 68.175 177.584 66.707 179.278 66.8406C180.972 66.9764 180.859 68.7012 179.77 69.0788C178.008 69.6876 175.129 71.807 174.994 77.3674Z" fill="#38A8C5"/>
<path d="M193.068 86.4879L192.885 89.2373C191.844 90.1007 190.768 90.1516 189.667 89.5682L189.332 86.8379L187.957 83.6536C187.957 83.6536 187.957 83.6536 187.952 83.6493L185.987 79.1157C185.987 79.1157 185.245 83.2484 185.517 84.8119C185.788 86.3712 188.022 90.2323 188.022 90.2323C188.022 90.2323 187.868 90.7499 187.202 91.3906C186.581 91.9973 185.489 92.7208 183.643 93.2214C179.85 94.2397 178.81 92.8799 178.81 88.4036C178.81 85.8302 178.716 82.2789 178.716 80.1998C178.716 75.3162 184.631 71.2493 183.348 68.5381C183.348 68.5381 187.887 70.9799 188.699 71.7924C189.508 72.6028 193.068 86.4879 193.068 86.4879Z" fill="#5ACEE6"/>
<path d="M178.737 79.5549C180.363 76.9115 181.921 75.0467 184.226 73.2838L183.683 72.1318L184.97 72.064C184.97 72.064 185.207 69.6349 183.795 68.1774C182.373 66.7094 181.355 66.843 181.355 66.843C181.355 66.843 183.884 68.9666 182.53 71.68C181.175 74.3891 179.068 76.1138 178.737 79.5549Z" fill="#38A8C5"/>
<path d="M181.109 87.0456C181.109 87.0456 183.617 86.4346 184.565 85.6221L184.7 86.1652C184.7 86.1652 182.667 87.1813 181.177 87.4529L181.109 87.0456Z" fill="#38A8C5"/>
<path d="M182.157 64.2191C182.057 65.598 183.819 66.8412 185.445 64.8746C187.857 61.9555 184.953 60.585 183.863 61.529C182.776 62.4731 182.157 64.2191 182.157 64.2191Z" fill="#212121"/>
<path d="M177.675 54.4326C177.675 54.4326 171.848 54.5005 174.763 61.0092L177.675 54.4326Z" fill="#212121"/>
<path d="M182.532 64.9422C185.069 63.9748 187.206 60.1965 185.411 56.3524C184.472 54.3455 181.245 52.2622 177.678 54.4324C172.798 55.5844 182.532 64.9422 182.532 64.9422Z" fill="#212121"/>
<path d="M178.123 65.5274C178.123 65.5274 179.369 67.4537 177.656 69.9719C176.298 71.9704 175.789 72.9887 175.46 74.1406C176.24 76.243 179.009 76.7394 180.802 74.5013C183.14 71.5864 183.477 70.1607 182.937 69.0427C182.146 67.4092 182.191 66.567 182.598 64.6025C182.895 63.1747 180.677 63.4017 178.123 65.5274Z" fill="#F29979"/>
<path d="M174.678 60.2788C175.127 62.4151 173.849 63.5543 176.005 67.4281C176.113 67.6297 176.514 67.863 177.37 67.8503C177.548 67.8439 177.756 67.8333 177.976 67.8015C177.993 67.8015 178.004 67.8015 178.019 67.7951C178.513 67.7357 179.119 67.6 179.84 67.3666C185.449 65.5824 183.791 53.6046 177.385 55.1936C176.403 55.4312 175.683 55.8767 175.212 56.5004C175.191 56.5216 175.174 56.5428 175.157 56.5662C174.504 57.4742 174.351 58.7386 174.678 60.2788Z" fill="#FFAC88"/>
<path d="M174.678 60.2793C175.127 62.4156 173.849 63.5549 176.005 67.4287C176.113 67.6302 176.514 67.8636 177.37 67.8509C176.399 67.4202 175.89 66.0412 175.89 64.4544C175.528 64.5032 175.299 64.6496 175.045 64.4374C174.784 64.221 175.577 62.2629 175.083 60.9497C174.72 59.9738 175.191 58.0263 175.441 56.9571C175.337 56.7725 175.278 56.6155 175.214 56.501C175.193 56.5222 175.176 56.5434 175.159 56.5667C174.504 57.4747 174.351 58.7391 174.678 60.2793Z" fill="#F29979"/>
<path d="M175.204 56.5135C175.204 56.5135 177.313 61.4163 184.158 63.3829C184.158 63.3829 185.886 56.9484 182.396 55.0433C177.923 52.6015 175.204 56.5135 175.204 56.5135Z" fill="#424242"/>
<path d="M188.02 90.232C188.02 90.232 187.865 90.7496 187.2 91.3903C187.185 91.3988 187.172 91.4052 187.161 91.4136C186.299 83.089 181.824 84.4892 181.624 83.5897C181.423 82.6838 185.432 82.5056 184.857 79.2534C184.48 77.0958 185.128 74.6413 186.621 72.7871C185.622 77.4883 187.06 80.9951 188.007 83.7063C188.007 83.7063 187.988 83.6872 187.956 83.6554C187.956 83.6554 187.956 83.6554 187.952 83.6512L185.987 79.1176C185.987 79.1176 185.245 83.2502 185.516 84.8137C185.786 86.3709 188.02 90.232 188.02 90.232Z" fill="#38A8C5"/>
<path d="M165.13 96.8106L165.703 95.8283C165.703 95.8283 165.921 95.3425 165.508 95.1877C165.276 95.0986 164.575 96.4987 165.13 96.8106Z" fill="#F29979"/>
<path d="M145.393 161.235C152.915 161.235 159.013 157.712 159.013 153.365C159.013 149.018 152.915 145.494 145.393 145.494C137.871 145.494 131.773 149.018 131.773 153.365C131.773 157.712 137.871 161.235 145.393 161.235Z" fill="#E2E2E2"/>
<path d="M134.353 86.2266C134.353 86.2266 130.651 95.6204 129.882 99.1845C129.112 102.749 136.443 111.614 136.443 111.614L137.418 106.608L135.374 101.425L136.841 96.5709L134.353 86.2266Z" fill="#515151"/>
<path d="M135.173 153.677C135.677 154.513 137.486 154.456 139.001 153.512C138.955 153.383 138.952 153.281 138.904 153.151C140.479 152.47 141.049 152.061 141.566 151.615C143.101 150.292 143.627 148.327 142.995 147.307C142.931 147.205 136.676 151.113 135.152 152.706C135.154 153.211 135.166 153.667 135.173 153.677Z" fill="#333333"/>
<path d="M135.677 153.462C136.553 153.928 137.655 153.551 139.743 152.463C142.675 150.933 143.415 148.667 143.141 147.685C142.558 145.585 140.343 147.626 138.408 148.767C136.593 149.838 135.05 150.613 135.05 151.126C135.052 151.637 134.804 152.995 135.677 153.462Z" fill="#424242"/>
<path d="M144.25 113.954C144.235 114.075 144.222 114.203 144.208 114.328C143.741 118.301 143.251 122.684 142.775 126.957V126.961C141.5 138.47 140.362 149.203 140.362 149.203C139.928 151.886 135.258 152.569 135.048 151.127C135.005 150.843 134.484 149.926 134.531 148.969C134.545 148.596 135.137 147.554 135.152 147.102C135.385 138.232 136.029 132.108 135.773 129.594C135.385 125.782 135.292 123.369 135.402 118.342C135.453 116.055 135.584 114.01 135.813 112.563C137.74 112.221 142.228 113.39 143.739 113.81C144.063 113.897 144.25 113.954 144.25 113.954Z" fill="#515151"/>
<path d="M145.586 156.416C145.382 157.316 145.666 158.175 149.149 157.869C149.143 157.732 149.158 157.587 149.149 157.452C150.393 157.392 151.731 157.352 152.395 157.199C155.174 156.556 156.846 155.235 156.651 153.561C156.403 151.418 145.603 156.336 145.586 156.416Z" fill="#333333"/>
<path d="M144.208 114.328C143.741 118.301 143.252 122.684 142.775 126.957C142.149 119.09 137.95 117.574 135.444 116.521C135.495 114.234 135.586 114.01 135.815 112.563C137.742 112.221 142.23 113.39 143.741 113.81C143.911 113.967 144.064 114.145 144.208 114.328Z" fill="#494949"/>
<path d="M145.586 156.415C145.586 156.623 145.795 156.982 146.37 157.101C147.078 157.247 148.316 157.132 150.103 157.139C154.044 157.154 156.696 155.164 156.687 153.719C156.674 151.595 152.941 153.545 150.15 153.061C148.074 152.701 146.395 153.821 146.241 154.309C146.088 154.801 145.586 155.147 145.586 156.415Z" fill="#424242"/>
<path d="M152.163 153.745C151.898 156.089 146.374 157.657 145.846 155.954L145.418 154.367L146.071 150.692C144.485 143.891 145.361 135.929 145.185 134.497C144.839 131.752 143.595 126.947 142.857 119.39C142.732 118.102 142.624 116.734 142.531 115.276C142.522 115.113 142.512 114.941 142.503 114.772C142.666 114.744 142.853 114.716 143.048 114.693C144.877 114.479 148.006 114.487 149.751 114.511C150.516 114.525 151.014 114.538 151.014 114.538C151.057 114.757 151.099 114.977 151.139 115.192C151.237 115.713 151.33 116.233 151.419 116.751C152.11 120.799 152.445 124.931 151.597 133.33C150.843 140.819 152.163 153.745 152.163 153.745Z" fill="#616161"/>
<path d="M146.779 86.363C146.682 86.2824 146.313 82.8541 146.406 82.6208C147.816 83.0323 148.14 82.7947 148.92 81.3139C150.302 78.6875 150.622 78.0384 150.459 76.9734C150.232 75.4756 150.807 75.1404 150.584 73.0614C150.362 70.9781 148.812 70.4477 147.235 70.121C145.077 69.6819 141.755 71.727 141.24 74.4722C140.964 75.9466 141.723 77.141 142.026 78.7257C142.264 79.9732 142.215 81.4646 141.149 83.5266C140.725 87.0037 146.525 87.8459 146.779 86.363Z" fill="#773D29"/>
<path d="M142.855 119.387C142.73 118.099 142.622 116.731 142.529 115.274C142.692 115.055 142.864 114.858 143.046 114.69C144.876 114.476 148.004 114.484 149.749 114.508C150.281 114.737 150.756 114.979 151.14 115.189C151.559 117.066 145.039 119.533 142.855 119.387Z" fill="#515151"/>
<path d="M146.779 86.3626C146.682 86.282 146.313 82.8537 146.406 82.6203C146.406 82.6203 145.128 81.7569 143.941 79.1857C143.638 78.5301 142.896 78.4431 142.026 78.7253C142.264 79.9727 142.215 81.4641 141.149 83.5262C140.725 87.0033 146.525 87.8455 146.779 86.3626Z" fill="#602D1F"/>
<path d="M147.038 85.1379L146.436 83.621C146.436 83.621 144.63 81.6523 141.728 82.1996L140.842 83.2201L147.038 85.1379Z" fill="white"/>
<path d="M151.445 108.982C151.449 111.269 151.542 113.516 151.794 115.588C147.283 118.855 138.266 117.769 134.687 114.188C135.468 109.833 136.89 102.717 136.517 101.368C134.721 94.7152 133.14 91.2466 134.357 86.2272C134.357 86.2272 135.061 84.0336 140.006 83.9254C140.341 83.7303 140.481 83.5796 140.846 83.2211C141.545 82.521 144.392 82.8201 146.527 84.6404C146.97 85.0413 147.614 85.752 147.614 85.752C147.614 85.752 149.626 86.486 151.108 87.1522C152.693 87.8671 152.045 94.3885 151.652 101.901C151.538 104.215 151.438 106.619 151.445 108.982Z" fill="#616161"/>
<path d="M147.612 85.7471C147.612 85.7471 142.758 83.388 140.004 83.9226L147.612 85.7471Z" fill="#515151"/>
<path d="M141.831 81.1734C141.874 81.2498 141.929 81.3261 141.978 81.4004C143.154 81.5362 144.702 81.0419 145.141 80.5263C145.596 80.0002 145.649 77.3908 146.349 76.6016C147.282 75.5515 147.636 77.8978 147.636 77.8978L148.227 78.0357C148.227 78.0357 148.45 76.9389 149.272 76.1158C150.48 74.9066 149.734 73.3006 150.72 72.7299C152.545 71.6756 149.944 69.3823 147.527 68.8901C146.525 68.6843 145.446 68.6397 144.475 68.7861C141.268 69.2783 136.877 73.4555 141.831 81.1734Z" fill="#2D2321"/>
<path d="M141.831 81.1742C141.874 80.9196 141.821 80.6205 141.751 80.3723C141.085 78.0662 140.483 75.599 141.204 73.3141C141.751 71.583 143.08 70.1128 144.744 69.3915C145.622 69.0118 146.582 68.8484 147.529 68.893C146.527 68.6872 145.448 68.6427 144.477 68.789C141.268 69.2791 136.877 73.4563 141.831 81.1742Z" fill="#231A18"/>
<path d="M151.655 101.9C151.538 104.217 151.441 106.62 151.445 108.982C146.323 104.635 148.255 92.4766 148.255 92.4766C148.255 92.4766 150.217 97.3517 151.655 101.9Z" fill="#515151"/>
<path d="M162.247 99.4219L164.352 96.1739C166.209 95.4399 167.708 94.0779 168.405 91.9925C168.263 91.7019 167.965 92.1092 167.899 91.9649C167.831 91.8185 168.263 91.4027 168.675 90.9572C168.259 90.4862 167.278 91.6255 167.138 91.513C167.04 91.4345 168.087 90.5626 168.087 90.5626C167.842 90.1171 167.225 90.5011 165.891 91.3751C164.935 92.001 163.625 92.1219 163.625 92.1219C163.625 92.1219 163.844 90.5011 162.782 90.465C162.828 91.1969 162.75 92.0901 162.438 92.8241C162.156 93.486 161.815 93.8276 162.031 94.8565C161.724 96.4158 160.651 98.1766 160.651 98.1766L162.247 99.4219Z" fill="#773D29"/>
<path d="M160.848 95.2639L161.804 94.4492C161.804 94.4492 163.85 95.2278 164.041 97.135L163.093 98.2551L160.848 95.2639Z" fill="white"/>
<path d="M150.953 87.1222C146.389 88.2911 147.82 104.607 153.185 108.186C154.434 109.02 159.328 105.307 163.803 97.9841C163.67 96.4906 162.682 94.7701 160.954 94.8168C158.813 97.0486 156.409 100.171 155.536 99.938C154.173 99.5752 152.886 86.6279 150.953 87.1222Z" fill="#616161"/>
<path d="M163.625 92.1271L163.36 93.6206C163.36 93.6206 164.079 93.8116 164.577 91.7283C165.078 89.6471 163.625 92.1271 163.625 92.1271Z" fill="#F29979"/>
<path d="M164.62 95.3618L165.726 95.6164C165.726 95.6164 166.421 95.7712 166.405 95.2515C166.394 94.8717 164.694 94.6681 164.62 95.3618Z" fill="#F29979"/>
<path d="M164.999 94.7084L166.065 95.1009C166.065 95.1009 166.79 95.277 166.803 94.7954C166.811 94.4475 165.217 94.0932 164.999 94.7084Z" fill="#F29979"/>
<path d="M165.518 94.0949L166.534 94.6062C166.534 94.6062 167.087 94.8077 167.161 94.3728C167.225 94.0016 165.72 93.5094 165.518 94.0949Z" fill="#F29979"/>
<path d="M210.711 149.862C213.977 149.862 216.625 148.332 216.625 146.445C216.625 144.558 213.977 143.028 210.711 143.028C207.445 143.028 204.798 144.558 204.798 146.445C204.798 148.332 207.445 149.862 210.711 149.862Z" fill="#E2E2E2"/>
<path d="M203.271 137.89L204.39 146.399C204.48 147.084 204.979 147.754 205.885 148.279C207.898 149.441 211.164 149.441 213.177 148.279C214.084 147.754 214.582 147.084 214.672 146.399L215.79 137.89H203.271Z" fill="#8D6E63"/>
<path d="M215.414 140.72L215.371 141.055C215.268 141.834 214.703 142.594 213.671 143.189C211.385 144.511 207.677 144.511 205.389 143.189C204.36 142.594 203.791 141.832 203.69 141.055L203.649 140.738C203.855 141.411 204.409 142.057 205.307 142.575C207.639 143.923 211.42 143.923 213.753 142.575C214.66 142.053 215.214 141.399 215.414 140.72Z" fill="#6D4C41"/>
<path d="M215.562 139.655L215.517 139.998C215.412 140.795 214.833 141.576 213.776 142.187C211.431 143.54 207.63 143.54 205.284 142.187C204.229 141.576 203.647 140.795 203.542 139.998L203.499 139.674C203.709 140.363 204.278 141.026 205.198 141.557C207.589 142.939 211.465 142.939 213.858 141.557C214.79 141.02 215.358 140.352 215.562 139.655Z" fill="#6D4C41"/>
<path d="M209.531 141.502C212.985 141.502 215.785 139.884 215.785 137.889C215.785 135.893 212.985 134.275 209.531 134.275C206.077 134.275 203.277 135.893 203.277 137.889C203.277 139.884 206.077 141.502 209.531 141.502Z" fill="#A1887F"/>
<path d="M214.756 139.149C214.481 139.533 214.073 139.89 213.534 140.203C211.323 141.48 207.74 141.48 205.529 140.203C204.989 139.89 204.583 139.533 204.306 139.149C203.449 137.96 203.859 136.541 205.529 135.575C207.74 134.298 211.323 134.298 213.534 135.575C215.205 136.541 215.615 137.96 214.756 139.149Z" fill="#6D4C41"/>
<path d="M214.576 138.73C214.558 138.73 214.539 138.732 214.52 138.736C214.501 138.642 214.423 138.571 214.324 138.571C214.313 138.571 214.301 138.577 214.29 138.578C214.286 138.479 214.204 138.399 214.103 138.399C214.075 138.399 214.047 138.406 214.023 138.419C214.026 138.397 214.032 138.376 214.032 138.354C214.032 138.279 213.989 138.217 213.929 138.183C213.929 138.176 213.931 138.168 213.931 138.161C213.931 137.981 213.785 137.835 213.605 137.835C213.592 137.835 213.581 137.837 213.568 137.839C213.517 137.79 213.448 137.76 213.373 137.76C213.332 137.76 213.293 137.77 213.259 137.785C213.22 137.751 213.169 137.73 213.113 137.73C213.082 137.73 213.05 137.738 213.022 137.751C212.984 137.706 212.93 137.674 212.868 137.674C212.821 137.674 212.778 137.691 212.745 137.719C212.728 137.713 212.713 137.706 212.698 137.698C212.672 137.635 212.612 137.588 212.539 137.588C212.513 137.588 212.489 137.595 212.466 137.605C212.44 137.547 212.384 137.507 212.318 137.498C212.279 137.365 212.157 137.266 212.01 137.266C211.965 137.266 211.922 137.275 211.882 137.292C211.837 137.257 211.781 137.232 211.72 137.232C211.673 137.232 211.628 137.245 211.591 137.268C211.551 137.174 211.46 137.109 211.351 137.109C211.301 137.109 211.256 137.124 211.216 137.148C211.177 137.079 211.104 137.03 211.018 137.03C210.984 137.03 210.953 137.038 210.925 137.051C210.874 136.996 210.803 136.963 210.722 136.963C210.661 136.963 210.603 136.983 210.558 137.019C210.5 136.959 210.419 136.921 210.328 136.921C210.273 136.921 210.223 136.936 210.178 136.961C210.146 136.95 210.114 136.942 210.079 136.942C210.021 136.942 209.969 136.959 209.924 136.987C209.888 136.972 209.851 136.963 209.81 136.963C209.75 136.963 209.694 136.981 209.649 137.015C209.613 136.996 209.574 136.985 209.531 136.985C209.443 136.985 209.364 137.03 209.318 137.097C209.288 137.075 209.252 137.06 209.211 137.06C209.183 137.06 209.157 137.068 209.134 137.079C209.082 137 208.992 136.948 208.891 136.948C208.855 136.948 208.82 136.955 208.788 136.966C208.736 136.933 208.674 136.912 208.609 136.912C208.489 136.912 208.384 136.978 208.328 137.073C208.317 137.071 208.305 137.066 208.292 137.066C208.255 137.066 208.221 137.081 208.191 137.101C208.148 137.056 208.088 137.03 208.023 137.03C207.959 137.03 207.901 137.056 207.86 137.097C207.836 137.09 207.81 137.084 207.782 137.084C207.666 137.084 207.568 137.161 207.535 137.264C207.52 137.26 207.507 137.255 207.492 137.255C207.404 137.255 207.335 137.317 207.314 137.397C207.291 137.403 207.269 137.41 207.247 137.416C207.215 137.39 207.174 137.371 207.129 137.371C207.076 137.371 207.028 137.391 206.994 137.427C206.944 137.388 206.88 137.363 206.809 137.363C206.67 137.363 206.554 137.457 206.519 137.584C206.508 137.582 206.498 137.579 206.487 137.579C206.422 137.579 206.367 137.612 206.332 137.661C206.292 137.635 206.246 137.62 206.193 137.62C206.074 137.62 205.976 137.702 205.948 137.813C205.911 137.785 205.864 137.768 205.812 137.768C205.733 137.768 205.666 137.807 205.623 137.867C205.604 137.861 205.585 137.858 205.565 137.858C205.466 137.858 205.381 137.923 205.353 138.013C205.329 138.007 205.303 138.002 205.277 138.002C205.106 138.002 204.968 138.14 204.968 138.311C204.968 138.318 204.97 138.324 204.97 138.331C204.904 138.341 204.848 138.38 204.816 138.434C204.807 138.432 204.798 138.43 204.787 138.43C204.62 138.43 204.485 138.565 204.485 138.732C204.485 138.743 204.487 138.753 204.489 138.762C204.439 138.794 204.405 138.846 204.405 138.908C204.379 138.899 204.351 138.893 204.321 138.893C204.265 138.893 204.214 138.91 204.171 138.94C204.212 139.011 204.257 139.08 204.306 139.149C204.583 139.533 204.99 139.891 205.529 140.204C207.74 141.48 211.323 141.48 213.534 140.204C214.075 139.891 214.481 139.533 214.756 139.149C214.793 139.097 214.827 139.043 214.859 138.988C214.851 138.985 214.846 138.979 214.838 138.975C214.829 138.839 214.717 138.73 214.576 138.73Z" fill="#4E342E"/>
<path d="M211.948 140.642C212.026 140.642 212.09 140.578 212.09 140.5C212.09 140.421 212.026 140.357 211.948 140.357C211.869 140.357 211.806 140.421 211.806 140.5C211.806 140.578 211.869 140.642 211.948 140.642Z" fill="#3E2723"/>
<path d="M210.298 138.658C210.298 138.691 210.272 138.717 210.238 138.717C210.204 138.717 210.178 138.691 210.178 138.658C210.178 138.624 210.204 138.598 210.238 138.598C210.272 138.598 210.298 138.624 210.298 138.658Z" fill="#3E2723"/>
<path d="M209.007 138.717C209.007 138.801 208.94 138.869 208.855 138.869C208.771 138.869 208.704 138.801 208.704 138.717C208.704 138.633 208.771 138.565 208.855 138.565C208.94 138.565 209.007 138.635 209.007 138.717Z" fill="#3E2723"/>
<path d="M208.799 138.226C208.799 138.266 208.767 138.299 208.726 138.299C208.687 138.299 208.653 138.268 208.653 138.226C208.653 138.187 208.685 138.153 208.726 138.153C208.767 138.153 208.799 138.185 208.799 138.226Z" fill="#3E2723"/>
<path d="M209.144 138.017C209.144 138.047 209.119 138.073 209.087 138.073C209.057 138.073 209.031 138.049 209.031 138.017C209.031 137.985 209.056 137.961 209.087 137.961C209.117 137.963 209.144 137.987 209.144 138.017Z" fill="#3E2723"/>
<path d="M210.343 137.958C210.343 138.016 210.296 138.061 210.24 138.061C210.182 138.061 210.137 138.015 210.137 137.958C210.137 137.9 210.184 137.855 210.24 137.855C210.296 137.855 210.343 137.9 210.343 137.958Z" fill="#3E2723"/>
<path d="M210.664 138.535C210.664 138.586 210.625 138.625 210.575 138.625C210.524 138.625 210.485 138.586 210.485 138.535C210.485 138.485 210.526 138.445 210.575 138.445C210.625 138.445 210.664 138.487 210.664 138.535Z" fill="#3E2723"/>
<path d="M210.382 139.282C210.382 139.355 210.322 139.415 210.249 139.415C210.176 139.415 210.116 139.355 210.116 139.282C210.116 139.209 210.176 139.149 210.249 139.149C210.322 139.148 210.382 139.207 210.382 139.282Z" fill="#3E2723"/>
<path d="M209.94 139.447C209.94 139.477 209.916 139.501 209.886 139.501C209.856 139.501 209.832 139.477 209.832 139.447C209.832 139.417 209.856 139.393 209.886 139.393C209.916 139.394 209.94 139.417 209.94 139.447Z" fill="#3E2723"/>
<path d="M209.295 139.698C209.295 139.736 209.265 139.767 209.226 139.767C209.188 139.767 209.157 139.737 209.157 139.698C209.157 139.661 209.187 139.629 209.226 139.629C209.265 139.631 209.295 139.661 209.295 139.698Z" fill="#3E2723"/>
<path d="M208.891 139.691C208.891 139.749 208.844 139.796 208.786 139.796C208.728 139.796 208.681 139.749 208.681 139.691C208.681 139.633 208.728 139.586 208.786 139.586C208.844 139.586 208.891 139.633 208.891 139.691Z" fill="#3E2723"/>
<path d="M208.595 139.772C208.595 139.809 208.565 139.839 208.528 139.839C208.491 139.839 208.461 139.809 208.461 139.772C208.461 139.734 208.491 139.704 208.528 139.704C208.565 139.704 208.595 139.734 208.595 139.772Z" fill="#3E2723"/>
<path d="M207.976 139.389C207.976 139.421 207.95 139.447 207.918 139.447C207.886 139.447 207.86 139.421 207.86 139.389C207.86 139.357 207.886 139.331 207.918 139.331C207.95 139.331 207.976 139.357 207.976 139.389Z" fill="#3E2723"/>
<path d="M207.834 138.515C207.834 138.578 207.782 138.631 207.718 138.631C207.654 138.631 207.602 138.578 207.602 138.515C207.602 138.451 207.654 138.398 207.718 138.398C207.782 138.398 207.834 138.451 207.834 138.515Z" fill="#3E2723"/>
<path d="M208.403 138.099C208.403 138.172 208.343 138.232 208.27 138.232C208.197 138.232 208.137 138.172 208.137 138.099C208.137 138.026 208.197 137.966 208.27 137.966C208.345 137.966 208.403 138.026 208.403 138.099Z" fill="#3E2723"/>
<path d="M208.369 138.872C208.369 138.958 208.3 139.028 208.214 139.028C208.128 139.028 208.058 138.958 208.058 138.872C208.058 138.786 208.128 138.717 208.214 138.717C208.3 138.717 208.369 138.786 208.369 138.872Z" fill="#3E2723"/>
<path d="M206.225 139.971C206.225 140.044 206.165 140.104 206.092 140.104C206.019 140.104 205.959 140.044 205.959 139.971C205.959 139.898 206.019 139.838 206.092 139.838C206.165 139.838 206.225 139.898 206.225 139.971Z" fill="#3E2723"/>
<path d="M208.816 139.147C208.816 139.234 208.747 139.305 208.659 139.305C208.573 139.305 208.502 139.235 208.502 139.147C208.502 139.061 208.571 138.99 208.659 138.99C208.747 138.992 208.816 139.061 208.816 139.147Z" fill="#3E2723"/>
<path d="M211.254 139.38C211.254 139.47 211.181 139.543 211.091 139.543C211.001 139.543 210.928 139.47 210.928 139.38C210.928 139.29 211.001 139.217 211.091 139.217C211.181 139.217 211.254 139.29 211.254 139.38Z" fill="#3E2723"/>
<path d="M214.09 139.415C214.09 139.503 214.019 139.574 213.931 139.574C213.843 139.574 213.772 139.503 213.772 139.415C213.772 139.327 213.843 139.256 213.931 139.256C214.019 139.256 214.09 139.327 214.09 139.415Z" fill="#3E2723"/>
<path d="M212.429 138.668C212.429 138.717 212.389 138.756 212.341 138.756C212.292 138.756 212.253 138.717 212.253 138.668C212.253 138.619 212.292 138.58 212.341 138.58C212.389 138.578 212.429 138.619 212.429 138.668Z" fill="#3E2723"/>
<path d="M210.891 137.831C210.891 137.876 210.853 137.914 210.808 137.914C210.763 137.914 210.726 137.876 210.726 137.831C210.726 137.786 210.763 137.749 210.808 137.749C210.853 137.749 210.891 137.786 210.891 137.831Z" fill="#3E2723"/>
<path d="M211.201 137.959C211.201 137.988 211.177 138.015 211.145 138.015C211.115 138.015 211.089 137.99 211.089 137.959C211.089 137.929 211.113 137.902 211.145 137.902C211.177 137.902 211.201 137.929 211.201 137.959Z" fill="#3E2723"/>
<path d="M211.772 138.766C211.772 138.826 211.723 138.874 211.663 138.874C211.604 138.874 211.555 138.826 211.555 138.766C211.555 138.706 211.604 138.657 211.663 138.657C211.723 138.657 211.772 138.706 211.772 138.766Z" fill="#3E2723"/>
<path d="M211.688 139.185C211.688 139.233 211.648 139.271 211.602 139.271C211.553 139.271 211.516 139.232 211.516 139.185C211.516 139.136 211.555 139.099 211.602 139.099C211.648 139.099 211.688 139.136 211.688 139.185Z" fill="#3E2723"/>
<path d="M211.417 139.832C211.417 139.915 211.351 139.98 211.269 139.98C211.186 139.98 211.121 139.915 211.121 139.832C211.121 139.75 211.186 139.685 211.269 139.685C211.351 139.685 211.417 139.75 211.417 139.832Z" fill="#3E2723"/>
<path d="M211.022 139.973C211.022 140.031 210.975 140.08 210.915 140.08C210.857 140.08 210.808 140.033 210.808 139.973C210.808 139.915 210.855 139.866 210.915 139.866C210.975 139.866 211.022 139.913 211.022 139.973Z" fill="#3E2723"/>
<path d="M210.442 140.076C210.442 140.156 210.376 140.222 210.296 140.222C210.215 140.222 210.15 140.156 210.15 140.076C210.15 139.995 210.215 139.93 210.296 139.93C210.376 139.93 210.442 139.995 210.442 140.076Z" fill="#3E2723"/>
<path d="M210.064 140.132C210.064 140.202 210.008 140.258 209.939 140.258C209.869 140.258 209.813 140.202 209.813 140.132C209.813 140.063 209.869 140.007 209.939 140.007C210.008 140.007 210.064 140.063 210.064 140.132Z" fill="#3E2723"/>
<path d="M209.656 140.119C209.656 140.157 209.626 140.187 209.589 140.187C209.551 140.187 209.521 140.157 209.521 140.119C209.521 140.082 209.551 140.052 209.589 140.052C209.626 140.052 209.656 140.082 209.656 140.119Z" fill="#3E2723"/>
<path d="M209.36 140.192C209.36 140.222 209.336 140.246 209.306 140.246C209.276 140.246 209.252 140.222 209.252 140.192C209.252 140.162 209.276 140.138 209.306 140.138C209.336 140.138 209.36 140.162 209.36 140.192Z" fill="#3E2723"/>
<path d="M208.857 140.02C208.857 140.073 208.814 140.114 208.764 140.114C208.711 140.114 208.67 140.071 208.67 140.02C208.67 139.97 208.713 139.927 208.764 139.927C208.814 139.927 208.857 139.968 208.857 140.02Z" fill="#3E2723"/>
<path d="M208.578 139.911C208.578 139.976 208.526 140.029 208.461 140.029C208.395 140.029 208.343 139.976 208.343 139.911C208.343 139.845 208.395 139.793 208.461 139.793C208.524 139.791 208.578 139.845 208.578 139.911Z" fill="#3E2723"/>
<path d="M208.214 139.724C208.214 139.808 208.146 139.876 208.062 139.876C207.978 139.876 207.911 139.808 207.911 139.724C207.911 139.64 207.978 139.572 208.062 139.572C208.146 139.572 208.214 139.64 208.214 139.724Z" fill="#3E2723"/>
<path d="M207.823 139.55C207.823 139.597 207.785 139.634 207.738 139.634C207.692 139.634 207.654 139.597 207.654 139.55C207.654 139.503 207.692 139.466 207.738 139.466C207.785 139.466 207.823 139.503 207.823 139.55Z" fill="#3E2723"/>
<path d="M207.318 138.936C207.318 138.971 207.289 138.999 207.254 138.999C207.218 138.999 207.19 138.971 207.19 138.936C207.19 138.9 207.218 138.872 207.254 138.872C207.289 138.872 207.318 138.9 207.318 138.936Z" fill="#3E2723"/>
<path d="M206.433 138.872C206.433 138.921 206.393 138.962 206.343 138.962C206.292 138.962 206.253 138.923 206.253 138.872C206.253 138.822 206.292 138.782 206.343 138.782C206.393 138.782 206.433 138.823 206.433 138.872Z" fill="#3E2723"/>
<path d="M207.572 137.921C207.572 137.955 207.546 137.981 207.512 137.981C207.478 137.981 207.452 137.955 207.452 137.921C207.452 137.888 207.478 137.861 207.512 137.861C207.546 137.861 207.572 137.889 207.572 137.921Z" fill="#3E2723"/>
<path d="M207.069 138.3C207.069 138.363 207.018 138.414 206.955 138.414C206.891 138.414 206.841 138.363 206.841 138.3C206.841 138.236 206.891 138.186 206.955 138.186C207.018 138.184 207.069 138.236 207.069 138.3Z" fill="#3E2723"/>
<path d="M206.88 139.32C206.88 139.41 206.807 139.485 206.715 139.485C206.625 139.485 206.551 139.412 206.551 139.32C206.551 139.23 206.623 139.155 206.715 139.155C206.807 139.155 206.88 139.228 206.88 139.32Z" fill="#3E2723"/>
<path d="M208.661 137.534C208.661 137.601 208.607 137.657 208.537 137.657C208.47 137.657 208.414 137.603 208.414 137.534C208.414 137.466 208.468 137.41 208.537 137.41C208.605 137.412 208.661 137.466 208.661 137.534Z" fill="#3E2723"/>
<path d="M209.016 137.427C209.016 137.464 208.986 137.496 208.947 137.496C208.91 137.496 208.878 137.466 208.878 137.427C208.878 137.387 208.908 137.357 208.947 137.357C208.986 137.357 209.016 137.389 209.016 137.427Z" fill="#3E2723"/>
<path d="M213.241 138.766C213.241 138.848 213.173 138.914 213.093 138.914C213.01 138.914 212.945 138.847 212.945 138.766C212.945 138.684 213.012 138.618 213.093 138.618C213.173 138.616 213.241 138.684 213.241 138.766Z" fill="#3E2723"/>
<path d="M211.113 138.782C211.113 138.833 211.072 138.874 211.022 138.874C210.971 138.874 210.93 138.833 210.93 138.782C210.93 138.732 210.971 138.69 211.022 138.69C211.072 138.69 211.113 138.732 211.113 138.782Z" fill="#3E2723"/>
<path d="M210.337 137.283C210.337 137.337 210.292 137.382 210.238 137.382C210.184 137.382 210.139 137.337 210.139 137.283C210.139 137.229 210.184 137.184 210.238 137.184C210.292 137.185 210.337 137.229 210.337 137.283Z" fill="#3E2723"/>
<path d="M210.672 137.326C210.672 137.359 210.646 137.385 210.612 137.385C210.578 137.385 210.552 137.359 210.552 137.326C210.552 137.292 210.578 137.266 210.612 137.266C210.644 137.266 210.672 137.292 210.672 137.326Z" fill="#3E2723"/>
<path d="M213.171 139.283C213.171 139.328 213.136 139.363 213.091 139.363C213.046 139.363 213.01 139.328 213.01 139.283C213.01 139.238 213.046 139.202 213.091 139.202C213.136 139.202 213.171 139.238 213.171 139.283Z" fill="#3E2723"/>
<path d="M211.576 137.32C211.576 137.387 211.521 137.443 211.452 137.443C211.385 137.443 211.329 137.389 211.329 137.32C211.329 137.252 211.383 137.196 211.452 137.196C211.521 137.196 211.576 137.252 211.576 137.32Z" fill="#3E2723"/>
<path d="M211.454 138.301C211.495 138.301 211.529 138.268 211.529 138.226C211.529 138.185 211.495 138.151 211.454 138.151C211.413 138.151 211.379 138.185 211.379 138.226C211.379 138.268 211.413 138.301 211.454 138.301Z" fill="#3E2723"/>
<path d="M212.195 137.599C212.195 137.691 212.122 137.764 212.03 137.764C211.938 137.764 211.865 137.691 211.865 137.599C211.865 137.508 211.938 137.435 212.03 137.435C212.122 137.435 212.195 137.508 212.195 137.599Z" fill="#3E2723"/>
<path d="M212.41 138.231C212.41 138.317 212.339 138.388 212.253 138.388C212.167 138.388 212.096 138.317 212.096 138.231C212.096 138.144 212.167 138.073 212.253 138.073C212.339 138.073 212.41 138.144 212.41 138.231Z" fill="#3E2723"/>
<path d="M212.827 138.346C212.918 138.346 212.992 138.272 212.992 138.181C212.992 138.09 212.918 138.017 212.827 138.017C212.736 138.017 212.662 138.09 212.662 138.181C212.662 138.272 212.736 138.346 212.827 138.346Z" fill="#3E2723"/>
<path d="M213.931 138.827C213.931 138.915 213.86 138.986 213.772 138.986C213.684 138.986 213.613 138.915 213.613 138.827C213.613 138.739 213.684 138.668 213.772 138.668C213.86 138.668 213.931 138.739 213.931 138.827Z" fill="#3E2723"/>
<path d="M212.586 139.196C212.586 139.263 212.531 139.318 212.464 139.318C212.397 139.318 212.343 139.263 212.343 139.196C212.343 139.129 212.397 139.074 212.464 139.074C212.53 139.074 212.586 139.129 212.586 139.196Z" fill="#3E2723"/>
<path d="M213.401 139.817C213.401 139.904 213.332 139.973 213.246 139.973C213.16 139.973 213.091 139.904 213.091 139.817C213.091 139.731 213.16 139.662 213.246 139.662C213.332 139.662 213.401 139.733 213.401 139.817Z" fill="#3E2723"/>
<path d="M212.462 140.043C212.462 140.107 212.41 140.159 212.346 140.159C212.283 140.159 212.23 140.107 212.23 140.043C212.23 139.979 212.283 139.927 212.346 139.927C212.41 139.925 212.462 139.977 212.462 140.043Z" fill="#3E2723"/>
<path d="M212.019 139.818C212.019 139.902 211.95 139.971 211.865 139.971C211.781 139.971 211.712 139.902 211.712 139.818C211.712 139.733 211.781 139.664 211.865 139.664C211.95 139.666 212.019 139.733 212.019 139.818Z" fill="#3E2723"/>
<path d="M211.514 140.846C211.595 140.846 211.662 140.779 211.662 140.698C211.662 140.616 211.595 140.55 211.514 140.55C211.432 140.55 211.366 140.616 211.366 140.698C211.366 140.779 211.432 140.846 211.514 140.846Z" fill="#3E2723"/>
<path d="M211.192 140.651C211.227 140.651 211.256 140.622 211.256 140.587C211.256 140.552 211.227 140.523 211.192 140.523C211.157 140.523 211.128 140.552 211.128 140.587C211.128 140.622 211.157 140.651 211.192 140.651Z" fill="#3E2723"/>
<path d="M210.78 140.698C210.78 140.782 210.711 140.851 210.627 140.851C210.543 140.851 210.474 140.782 210.474 140.698C210.474 140.613 210.543 140.544 210.627 140.544C210.711 140.542 210.78 140.611 210.78 140.698Z" fill="#3E2723"/>
<path d="M210.509 140.484C210.509 140.55 210.457 140.602 210.391 140.602C210.326 140.602 210.273 140.55 210.273 140.484C210.273 140.419 210.326 140.366 210.391 140.366C210.457 140.366 210.509 140.419 210.509 140.484Z" fill="#3E2723"/>
<path d="M210.084 140.97C210.084 141.035 210.032 141.087 209.966 141.087C209.901 141.087 209.849 141.035 209.849 140.97C209.849 140.904 209.901 140.852 209.966 140.852C210.032 140.852 210.084 140.904 210.084 140.97Z" fill="#3E2723"/>
<path d="M209.817 140.754C209.817 140.804 209.776 140.846 209.725 140.846C209.675 140.846 209.634 140.804 209.634 140.754C209.634 140.703 209.675 140.662 209.725 140.662C209.776 140.662 209.817 140.703 209.817 140.754Z" fill="#3E2723"/>
<path d="M209.488 140.796C209.488 140.837 209.454 140.87 209.413 140.87C209.372 140.87 209.338 140.837 209.338 140.796C209.338 140.754 209.372 140.721 209.413 140.721C209.454 140.723 209.488 140.756 209.488 140.796Z" fill="#3E2723"/>
<path d="M209.078 140.858C209.14 140.858 209.19 140.808 209.19 140.746C209.19 140.684 209.14 140.634 209.078 140.634C209.016 140.634 208.966 140.684 208.966 140.746C208.966 140.808 209.016 140.858 209.078 140.858Z" fill="#3E2723"/>
<path d="M208.642 140.769C208.642 140.817 208.603 140.857 208.554 140.857C208.506 140.857 208.466 140.817 208.466 140.769C208.466 140.72 208.506 140.681 208.554 140.681C208.603 140.681 208.642 140.72 208.642 140.769Z" fill="#3E2723"/>
<path d="M208.414 140.635C208.414 140.685 208.373 140.728 208.32 140.728C208.268 140.728 208.227 140.687 208.227 140.635C208.227 140.584 208.268 140.541 208.32 140.541C208.373 140.541 208.414 140.584 208.414 140.635Z" fill="#3E2723"/>
<path d="M208.07 140.499C208.07 140.535 208.042 140.563 208.006 140.563C207.971 140.563 207.943 140.535 207.943 140.499C207.943 140.464 207.971 140.436 208.006 140.436C208.042 140.436 208.07 140.464 208.07 140.499Z" fill="#3E2723"/>
<path d="M207.885 140.389C207.885 140.475 207.815 140.544 207.729 140.544C207.643 140.544 207.574 140.475 207.574 140.389C207.574 140.303 207.643 140.233 207.729 140.233C207.813 140.233 207.885 140.303 207.885 140.389Z" fill="#3E2723"/>
<path d="M207.503 140.353C207.503 140.424 207.445 140.482 207.374 140.482C207.303 140.482 207.245 140.424 207.245 140.353C207.245 140.282 207.303 140.224 207.374 140.224C207.445 140.224 207.503 140.282 207.503 140.353Z" fill="#3E2723"/>
<path d="M207.147 140.145C207.147 140.198 207.104 140.241 207.052 140.241C206.999 140.241 206.956 140.198 206.956 140.145C206.956 140.093 206.999 140.05 207.052 140.05C207.104 140.05 207.147 140.093 207.147 140.145Z" fill="#3E2723"/>
<path d="M206.816 140.1C206.816 140.156 206.771 140.201 206.715 140.201C206.659 140.201 206.614 140.156 206.614 140.1C206.614 140.044 206.659 139.999 206.715 139.999C206.771 140.001 206.816 140.046 206.816 140.1Z" fill="#3E2723"/>
<path d="M205.892 139.515C205.929 139.515 205.959 139.485 205.959 139.447C205.959 139.41 205.929 139.38 205.892 139.38C205.855 139.38 205.825 139.41 205.825 139.447C205.825 139.485 205.855 139.515 205.892 139.515Z" fill="#3E2723"/>
<path d="M205.349 139.32C205.349 139.371 205.308 139.412 205.258 139.412C205.207 139.412 205.166 139.371 205.166 139.32C205.166 139.27 205.207 139.229 205.258 139.229C205.31 139.229 205.349 139.27 205.349 139.32Z" fill="#3E2723"/>
<path d="M205.958 138.529C205.994 138.529 206.023 138.5 206.023 138.464C206.023 138.428 205.994 138.398 205.958 138.398C205.921 138.398 205.892 138.428 205.892 138.464C205.892 138.5 205.921 138.529 205.958 138.529Z" fill="#3E2723"/>
<path d="M206.343 138.021C206.343 138.069 206.304 138.109 206.255 138.109C206.206 138.109 206.167 138.069 206.167 138.021C206.167 137.972 206.206 137.933 206.255 137.933C206.304 137.933 206.343 137.972 206.343 138.021Z" fill="#3E2723"/>
<path d="M206.773 137.82C206.773 137.9 206.708 137.966 206.627 137.966C206.547 137.966 206.481 137.9 206.481 137.82C206.481 137.739 206.547 137.674 206.627 137.674C206.708 137.672 206.773 137.738 206.773 137.82Z" fill="#3E2723"/>
<path d="M207.245 137.547C207.245 137.579 207.218 137.605 207.187 137.605C207.155 137.605 207.129 137.579 207.129 137.547C207.129 137.515 207.155 137.489 207.187 137.489C207.218 137.489 207.245 137.515 207.245 137.547Z" fill="#3E2723"/>
<path d="M207.636 137.535C207.636 137.607 207.578 137.665 207.507 137.665C207.435 137.665 207.377 137.607 207.377 137.535C207.377 137.464 207.435 137.406 207.507 137.406C207.578 137.406 207.636 137.464 207.636 137.535Z" fill="#3E2723"/>
<path d="M205.408 138.668C205.408 138.751 205.342 138.816 205.26 138.816C205.177 138.816 205.112 138.751 205.112 138.668C205.112 138.586 205.177 138.521 205.26 138.521C205.342 138.521 205.408 138.586 205.408 138.668Z" fill="#3E2723"/>
<path d="M209.866 127.886V139.132C209.866 139.376 209.675 139.574 209.433 139.585H209.413C209.166 139.585 208.962 139.383 208.962 139.132V127.886C208.962 127.639 209.164 127.435 209.413 127.435C209.538 127.435 209.65 127.485 209.733 127.567C209.813 127.65 209.866 127.764 209.866 127.886Z" fill="#754E42"/>
<path d="M209.433 133.822V139.585H209.413C209.166 139.585 208.962 139.383 208.962 139.132V133.371H208.983C209.108 133.371 209.218 133.422 209.301 133.504C209.383 133.586 209.433 133.699 209.433 133.822Z" fill="#84574C"/>
<path d="M218.121 121.468C218.363 121.546 218.574 121.305 218.473 121.078C218.355 120.816 218.183 120.524 217.987 120.322C217.912 120.245 217.888 120.135 217.925 120.035C217.968 119.921 218 119.798 218.022 119.661C218.062 119.427 217.874 119.217 217.639 119.234C217.508 119.243 217.394 119.15 217.375 119.026C217.362 118.935 217.343 118.843 217.323 118.759C217.298 118.661 217.362 118.566 217.461 118.551C217.48 118.549 217.497 118.545 217.513 118.543C217.627 118.523 217.689 118.397 217.631 118.296C217.577 118.201 217.502 118.105 217.416 118.021C217.351 117.957 217.339 117.851 217.397 117.779C217.513 117.635 217.596 117.476 217.671 117.289C217.723 117.16 217.674 117.012 217.56 116.931C217.338 116.774 217.063 116.628 216.827 116.551C216.731 116.519 216.66 116.439 216.645 116.338C216.623 116.194 216.709 116.061 216.846 116.027C216.961 115.997 216.997 115.853 216.909 115.776C216.728 115.615 216.447 115.426 216.183 115.336C216.065 115.295 215.981 115.192 215.953 115.072C215.919 114.928 215.875 114.791 215.837 114.686C215.811 114.613 215.723 114.587 215.659 114.63C215.615 114.66 215.56 114.658 215.521 114.63C215.487 114.606 215.45 114.582 215.411 114.559C215.207 114.443 215.094 114.213 215.119 113.979C215.124 113.924 215.128 113.859 215.13 113.797C215.132 113.67 215.008 113.578 214.889 113.616C214.864 113.623 214.846 113.629 214.842 113.63C214.696 113.679 214.696 113.64 214.563 113.559C214.372 113.441 214.152 113.37 213.927 113.353C213.972 113.353 213.862 113.101 213.751 112.872C213.667 112.696 213.431 112.664 213.304 112.814C212.816 113.385 211.781 114.619 211.312 115.316C210.584 116.396 209.892 117.5 209.041 118.491C208.262 119.397 207.415 120.241 206.661 121.17C206.287 121.632 205.935 122.115 205.636 122.63C205.323 123.166 205.05 123.729 204.773 124.283C204.326 125.184 203.701 127.185 204.255 127.835C204.388 127.99 204.459 128.187 204.463 128.391C204.463 128.43 204.465 128.468 204.467 128.505C204.482 128.801 204.846 128.925 205.037 128.7C205.052 128.681 205.067 128.663 205.084 128.644C205.138 128.578 205.215 128.535 205.299 128.524C205.51 128.496 205.817 128.449 206.07 128.352C206.148 128.322 206.234 128.371 206.249 128.455C206.283 128.642 206.345 128.835 206.414 128.985C206.468 129.104 206.624 129.131 206.715 129.037C206.857 128.891 207.271 128.878 207.458 128.885C207.557 128.889 207.641 128.96 207.656 129.058C207.666 129.119 207.679 129.185 207.694 129.251C207.739 129.447 207.995 129.498 208.111 129.335C208.21 129.194 208.313 129.033 208.373 128.889C208.423 128.769 208.53 128.681 208.661 128.672C208.867 128.657 209.037 128.812 209.033 129.009C209.033 129.06 209.033 129.108 209.035 129.155C209.043 129.307 209.203 129.404 209.338 129.333C209.447 129.277 209.553 129.198 209.643 129.108C209.684 129.067 209.75 129.069 209.791 129.108C209.98 129.28 210.208 129.43 210.378 129.52C210.451 129.558 210.541 129.503 210.537 129.421C210.535 129.367 210.532 129.303 210.522 129.237C210.511 129.142 210.545 129.048 210.614 128.985C210.706 128.9 210.797 128.809 210.881 128.711C210.984 128.593 211.16 128.584 211.272 128.694C211.392 128.812 211.525 128.919 211.645 128.996C211.764 129.075 211.922 129.069 212.036 128.983C212.217 128.848 212.399 128.665 212.535 128.503C212.623 128.401 212.777 128.382 212.887 128.46C212.99 128.533 213.098 128.601 213.199 128.657C213.373 128.752 213.581 128.601 213.544 128.404C213.499 128.166 213.443 127.931 213.454 127.936C213.512 127.822 213.622 127.609 213.691 127.391C213.734 127.258 213.875 127.184 214.008 127.229C214.264 127.315 214.488 127.054 214.369 126.82C214.335 126.755 214.367 126.684 214.43 126.667C214.46 126.659 214.488 126.65 214.516 126.641C214.599 126.613 214.69 126.648 214.73 126.727C214.78 126.828 214.838 126.927 214.896 127.017C215.01 127.189 215.278 127.142 215.325 126.942C215.332 126.91 215.34 126.878 215.345 126.847C215.384 126.642 215.48 126.453 215.62 126.3C215.798 126.105 215.985 125.851 216.103 125.6C216.183 125.429 216.335 125.3 216.522 125.268C216.672 125.242 216.816 125.208 216.932 125.175C217.048 125.143 217.102 125.008 217.036 124.907C216.98 124.821 216.905 124.737 216.819 124.66C216.675 124.532 216.66 124.315 216.788 124.171C216.943 123.997 217.081 123.806 217.188 123.621C217.294 123.435 217.345 123.22 217.324 123.007C217.285 122.595 217.179 122.166 217.098 121.923C217.405 121.923 217.779 121.82 217.983 121.715C218.026 121.692 218.041 121.638 218.017 121.597C217.981 121.528 218.047 121.443 218.121 121.468Z" fill="#51694F"/>
<path d="M217.457 120.637C217.397 120.324 217.092 119.658 216.726 119.352C216.7 119.33 216.69 119.292 216.701 119.259C216.802 118.985 216.859 118.669 216.885 118.48C216.892 118.431 216.855 118.386 216.804 118.386C216.782 118.386 216.759 118.386 216.735 118.388C216.698 118.39 216.664 118.368 216.651 118.334C216.597 118.19 216.481 118.023 216.34 117.898C216.297 117.86 216.305 117.791 216.353 117.763C216.606 117.617 216.844 117.336 216.922 117.132C216.932 117.106 216.928 117.078 216.913 117.055C216.765 116.847 216.297 116.458 215.91 116.357C215.876 116.347 215.852 116.319 215.848 116.286C215.839 116.19 215.822 116.093 215.802 115.999C215.792 115.952 215.822 115.907 215.867 115.898C215.974 115.877 216.071 115.853 216.148 115.829C216.208 115.81 216.224 115.735 216.181 115.692C215.991 115.496 215.577 115.205 215.238 115.134C215.205 115.127 215.179 115.099 215.173 115.065C215.145 114.87 215.081 114.574 214.947 114.44C214.816 114.309 214.659 114.198 214.479 114.142C214.436 114.129 214.423 114.086 214.423 114.041C214.423 113.363 213.873 113.017 213.476 112.923C213.433 112.914 213.407 112.873 213.413 112.83C213.424 112.756 213.431 112.682 213.435 112.607C213.439 112.539 213.441 112.472 213.439 112.406C213.435 112.161 213.145 112.036 212.962 112.199C212.747 112.39 212.537 112.595 212.502 112.577C212.464 112.556 212.56 112.423 212.651 112.303C212.732 112.2 212.677 112.049 212.552 112.017C212.472 111.996 212.386 111.985 212.296 111.98C212.195 111.974 212.092 111.98 211.991 111.996C211.946 112.004 211.903 111.974 211.895 111.929C211.888 111.888 211.88 111.847 211.869 111.805C211.841 111.674 211.8 111.545 211.757 111.429C211.69 111.249 211.452 111.208 211.329 111.354C211.246 111.452 211.168 111.568 211.104 111.699C211.065 111.779 202.452 124.046 201.935 124.819C201.836 124.855 201.741 125.669 202.306 125.842C202.339 125.853 202.366 125.883 202.366 125.918C202.388 126.461 202.904 126.836 203.146 126.864C203.385 126.89 203.531 127.006 203.531 127.231C203.531 127.298 203.529 127.365 203.535 127.431C203.535 127.44 203.542 127.48 203.554 127.53C203.584 127.673 203.737 127.751 203.87 127.689C204.184 127.545 204.7 127.307 204.917 127.216C204.968 127.195 205.024 127.225 205.032 127.279C205.073 127.566 205.191 127.878 205.295 128.038C205.31 128.062 205.338 128.075 205.366 128.075C205.694 128.069 206.036 128 206.298 127.886C206.349 127.864 206.408 127.897 206.414 127.953C206.436 128.195 206.502 128.444 206.562 128.603C206.584 128.661 206.659 128.674 206.7 128.629C206.876 128.436 207.125 128.036 207.183 127.708C207.19 127.667 207.228 127.637 207.271 127.641C207.432 127.654 207.615 127.629 207.735 127.607C207.793 127.596 207.841 127.646 207.83 127.704C207.828 127.719 207.825 127.732 207.823 127.747C207.787 127.966 207.793 128.206 207.823 128.362C207.832 128.412 207.881 128.44 207.927 128.425C208.092 128.375 208.281 128.259 208.423 128.113C208.455 128.079 208.507 128.077 208.541 128.109C208.724 128.279 208.947 128.429 209.119 128.523C209.143 128.536 209.166 128.547 209.188 128.558C209.244 128.584 209.308 128.545 209.308 128.483C209.308 128.391 209.299 128.275 209.278 128.15C209.274 128.122 209.284 128.094 209.304 128.073C209.469 127.929 209.652 127.749 209.78 127.566C209.809 127.523 209.871 127.519 209.907 127.556C210.083 127.74 210.442 128.011 210.573 128.098C210.599 128.114 210.634 128.114 210.661 128.098C210.851 127.98 211.242 127.654 211.426 127.437C211.456 127.401 211.506 127.397 211.542 127.425C211.796 127.633 212.112 127.802 212.309 127.875C212.352 127.89 212.399 127.869 212.415 127.828C212.56 127.446 212.619 126.86 212.561 126.334C212.554 126.272 212.618 126.223 212.676 126.25C212.849 126.325 213.046 126.371 213.184 126.383C213.235 126.386 213.276 126.345 213.272 126.295C213.265 126.169 213.224 126.021 213.156 125.89C213.132 125.842 213.158 125.783 213.211 125.77C213.274 125.755 213.336 125.735 213.396 125.71C213.439 125.692 213.487 125.71 213.506 125.752C213.615 125.993 213.777 126.229 213.899 126.371C213.94 126.418 214.015 126.405 214.039 126.349C214.105 126.19 214.17 125.937 214.195 125.688C214.196 125.666 214.208 125.645 214.225 125.632C214.49 125.413 214.907 124.904 215.023 124.475C215.033 124.441 215.063 124.415 215.096 124.413C215.388 124.391 215.699 124.308 215.882 124.254C215.929 124.239 215.955 124.188 215.934 124.143C215.848 123.949 215.652 123.748 215.426 123.612C215.383 123.585 215.373 123.526 215.405 123.488C215.538 123.333 215.644 123.131 215.701 122.861C215.71 122.82 215.686 122.777 215.644 122.765C215.538 122.732 215.373 122.653 215.424 122.546C215.482 122.425 215.91 122.483 216.105 122.445C216.142 122.438 216.168 122.406 216.172 122.369C216.204 121.936 216.164 121.58 215.987 121.153C215.964 121.099 216.002 121.041 216.06 121.037C216.413 121.019 216.965 120.929 217.409 120.734C217.444 120.712 217.465 120.674 217.457 120.637Z" fill="#547C47"/>
<path d="M215.706 119.753C215.659 119.521 215.482 119.101 215.246 118.776C215.227 118.749 215.235 118.714 215.261 118.697C215.285 118.682 215.306 118.669 215.325 118.658C215.351 118.641 215.358 118.607 215.34 118.581C215.268 118.482 215.154 118.392 215.02 118.321C214.995 118.307 214.984 118.281 214.992 118.255C215.072 117.999 215.115 117.729 215.137 117.572C215.141 117.542 215.119 117.514 215.089 117.512C215.025 117.506 214.954 117.512 214.883 117.525C214.836 117.534 214.803 117.484 214.825 117.444C214.909 117.302 215.096 117.068 215.295 116.973C215.328 116.956 215.336 116.913 215.31 116.885C215.145 116.718 214.849 116.594 214.559 116.559C214.529 116.555 214.509 116.527 214.513 116.495C214.578 116.126 214.657 115.389 214.662 115.13C214.662 115.112 214.655 115.095 214.638 115.085C214.457 114.971 214.161 114.934 213.886 114.973C213.837 114.981 213.805 114.922 213.837 114.885C213.865 114.849 213.903 114.814 213.942 114.791C213.968 114.776 213.978 114.743 213.963 114.717C213.873 114.559 213.635 114.271 213.362 114.226C213.328 114.22 213.308 114.185 213.321 114.153C213.433 113.882 213.487 113.561 213.501 113.354C213.502 113.32 213.474 113.292 213.441 113.296C213.282 113.31 213.068 113.387 212.864 113.498C212.842 113.511 212.812 113.505 212.795 113.485C212.659 113.318 212.414 113.174 212.167 113.11C212.17 113.101 212.174 113.091 212.176 113.082C212.225 112.949 212.258 112.803 212.279 112.665C212.301 112.522 212.311 112.387 212.309 112.283C212.309 112.249 212.279 112.223 212.245 112.228C212.032 112.264 211.72 112.425 211.488 112.629C211.452 112.659 211.405 112.665 211.364 112.646C211.327 112.627 211.287 112.605 211.239 112.582C211.054 112.49 210.964 112.279 211.027 112.08C211.069 111.951 211.097 111.828 211.112 111.728C211.121 111.689 211.095 111.655 211.059 111.657C210.859 111.661 210.554 111.764 210.313 111.914C210.305 111.919 210.298 111.927 210.294 111.934C210.193 112.127 210.045 112.307 209.89 112.44C209.763 112.548 209.617 112.614 209.45 112.607C209.318 112.599 209.209 112.55 209.123 112.475C209.022 112.64 208.9 112.794 208.758 112.93C208.418 113.258 207.969 113.492 207.523 113.646C207.209 113.752 206.854 113.827 206.521 113.784C206.45 113.775 206.382 113.756 206.319 113.73C206.276 113.812 206.234 113.896 206.199 113.984C206.047 114.342 206.001 114.728 205.872 115.091C205.757 115.415 205.598 115.722 205.398 116.003C204.951 116.63 204.304 117.055 203.739 117.564C203.121 118.12 202.532 118.714 201.861 119.206C201.511 119.463 201.135 119.678 200.764 119.903C200.603 120.002 200.51 119.981 200.471 120.137C200.394 120.436 200.435 120.93 200.598 121.204C200.635 121.266 200.641 121.342 200.613 121.408C200.579 121.483 200.542 121.588 200.523 121.692C200.512 121.756 200.529 121.82 200.568 121.868C200.654 121.971 200.637 122.119 200.532 122.196C200.514 122.209 200.495 122.224 200.476 122.241C200.28 122.406 200.373 122.73 200.628 122.765C200.676 122.773 200.725 122.776 200.772 122.776C200.802 122.776 200.826 122.803 200.824 122.833C200.819 122.952 200.817 123.168 200.875 123.402C200.89 123.462 200.869 123.527 200.824 123.57C200.729 123.662 200.759 123.816 200.877 123.864C200.996 123.913 201.144 123.963 201.264 123.999C201.374 124.033 201.447 124.138 201.438 124.254C201.423 124.456 201.445 124.673 201.475 124.851C201.509 125.046 201.703 125.169 201.896 125.119C202.263 125.023 202.652 124.851 202.876 124.735C202.91 124.718 202.949 124.739 202.955 124.776C202.989 125.053 203.015 125.345 203.202 125.534C203.391 125.723 203.958 125.746 204.16 125.731C204.19 125.729 204.216 125.751 204.218 125.781C204.236 126.066 204.317 126.369 204.39 126.54C204.405 126.575 204.452 126.585 204.478 126.557C204.639 126.396 204.886 126.021 204.972 125.692C204.979 125.665 205.005 125.647 205.032 125.65C205.198 125.675 205.383 125.692 205.544 125.678C205.58 125.675 205.61 125.708 205.602 125.744C205.548 126 205.553 126.308 205.593 126.482C205.6 126.512 205.63 126.53 205.658 126.523C205.825 126.48 206.023 126.364 206.173 126.214C206.203 126.184 206.251 126.199 206.263 126.238C206.339 126.517 206.543 126.704 206.762 126.768C206.775 126.772 206.79 126.77 206.801 126.764C207.146 126.592 207.422 126.225 207.561 126C207.58 125.971 207.621 125.967 207.645 125.991C207.823 126.175 208.406 126.708 208.479 126.708C208.558 126.708 209.082 126.33 209.278 126.096C209.297 126.073 209.332 126.072 209.355 126.09C209.615 126.308 209.946 126.485 210.148 126.558C210.184 126.571 210.223 126.545 210.221 126.506C210.215 126.328 210.15 126.019 210.073 125.795C210.068 125.776 210.071 125.755 210.085 125.74C210.232 125.577 210.36 125.276 210.399 125.046C210.404 125.01 210.444 124.991 210.476 125.006C210.678 125.106 210.93 125.167 211.087 125.173C211.117 125.175 211.143 125.149 211.143 125.119C211.142 125.038 211.125 124.945 211.097 124.851C211.087 124.819 211.106 124.785 211.14 124.782C211.243 124.765 211.347 124.735 211.441 124.692C211.469 124.679 211.501 124.692 211.512 124.72C211.635 125.003 211.834 125.282 211.963 125.416C211.983 125.437 212.017 125.439 212.039 125.418C212.492 125.012 213.059 124.05 213.183 123.546C213.188 123.524 213.209 123.507 213.231 123.505C213.545 123.482 213.886 123.391 214.067 123.334C214.097 123.325 214.112 123.293 214.103 123.265C214.024 123.052 213.805 122.827 213.555 122.685C213.523 122.666 213.517 122.625 213.544 122.599C213.809 122.34 214.468 121.93 214.556 121.646C214.644 121.355 214.443 120.71 214.264 120.225C214.251 120.191 214.275 120.155 214.311 120.152C214.604 120.127 214.926 120.028 215.094 119.934C215.121 119.919 215.13 119.886 215.115 119.861C215.096 119.828 215.074 119.794 215.048 119.758C215.016 119.715 215.059 119.657 215.109 119.674C215.311 119.747 215.502 119.794 215.635 119.815C215.682 119.824 215.712 119.79 215.706 119.753Z" fill="#669A48"/>
<path d="M212.975 117.062C212.992 117.017 213.035 116.987 213.081 116.991C213.164 116.997 213.244 117 213.323 117.002C213.564 117.004 213.693 116.718 213.532 116.536C213.375 116.358 213.173 116.171 212.969 116.038C212.806 115.931 212.704 115.755 212.681 115.561C212.646 115.259 212.513 114.978 212.301 114.816C212.157 114.705 212.069 114.538 212.049 114.359C212.028 114.168 211.967 113.943 211.841 113.754C211.749 113.615 211.757 113.434 211.865 113.308C212.019 113.131 212.152 112.911 212.112 112.852C212.075 112.794 211.888 112.674 211.435 112.706C211.102 112.728 210.775 112.618 210.52 112.404C210.447 112.344 210.421 112.256 210.44 112.174C210.479 112 210.32 111.856 210.157 111.904C210.062 111.932 209.976 111.972 209.899 112.015C209.813 112.061 209.712 111.988 209.729 111.893C209.74 111.826 209.697 111.764 209.634 111.754C209.471 111.728 209.196 111.779 209.014 111.859C208.702 111.653 208.107 111.646 207.797 111.818C207.752 111.844 207.739 111.904 207.772 111.944C207.808 111.985 207.795 112.045 207.75 112.071C207.72 112.088 207.692 112.105 207.664 112.123C207.636 112.142 207.598 112.14 207.57 112.12C207.503 112.067 207.421 112.024 207.331 111.99C207.316 111.985 207.301 111.979 207.286 111.973C207.063 112.339 206.775 112.661 206.465 112.964C205.57 113.836 204.7 114.718 203.716 115.493C203.262 115.853 202.831 116.238 202.399 116.626C202.195 116.809 201.561 117.109 201.361 117.701C201.335 117.776 201.256 117.819 201.181 117.794C201.176 117.792 201.172 117.791 201.166 117.791C200.884 117.701 200.646 118.025 200.819 118.266C200.914 118.399 200.903 118.569 200.804 118.689C200.654 118.871 200.495 119.159 200.465 119.477C200.454 119.605 200.42 119.728 200.368 119.844C200.364 119.852 200.36 119.861 200.356 119.869C200.244 120.127 200.476 120.406 200.749 120.339C200.777 120.331 200.804 120.326 200.832 120.318C201.047 120.258 201.273 120.374 201.342 120.588C201.38 120.7 201.423 120.805 201.464 120.891C201.518 121.003 201.518 121.132 201.468 121.247C201.363 121.483 201.524 121.743 201.776 121.76C201.789 121.76 201.803 121.762 201.816 121.762C201.909 121.765 201.99 121.835 202.001 121.926C202.018 122.063 202.046 122.2 202.079 122.319C202.122 122.475 202.326 122.509 202.418 122.377C202.461 122.316 202.53 122.286 202.601 122.293C202.687 122.303 202.775 122.31 202.86 122.312C202.966 122.314 203.05 122.406 203.035 122.512C203.017 122.66 203.015 122.812 203.024 122.941C203.034 123.065 203.164 123.143 203.277 123.091C203.382 123.04 203.49 122.969 203.584 122.887C203.651 122.827 203.752 122.823 203.821 122.883C203.862 122.919 203.905 122.954 203.95 122.988C203.95 122.992 203.948 122.995 203.948 122.999C203.868 123.432 204.377 123.724 204.715 123.443C204.85 123.33 204.96 123.246 204.992 123.244C205.054 123.241 205.492 123.621 205.765 123.905C205.933 124.079 206.208 124.1 206.397 123.946C206.483 123.875 206.564 123.793 206.625 123.705C206.923 123.969 207.338 124.179 207.533 124.233C207.624 124.046 207.692 123.883 207.737 123.727C207.843 123.362 208.163 123.1 208.543 123.078C208.549 123.078 208.552 123.078 208.558 123.078C208.854 123.061 209.136 123.203 209.299 123.45C209.398 123.598 209.497 123.72 209.566 123.782C209.879 123.499 210.573 122.75 210.814 122.226C210.872 122.099 210.992 122.011 211.13 121.99C211.271 121.969 211.411 121.938 211.531 121.908C211.708 121.863 211.828 121.696 211.819 121.513C211.807 121.307 211.774 121.11 211.735 120.938C211.66 120.616 211.828 120.286 212.135 120.161C212.27 120.106 212.376 120.039 212.401 119.977C212.449 119.857 212.401 119.451 212.3 119.112C212.262 118.983 212.348 118.852 212.481 118.831C212.713 118.796 212.945 118.723 213.089 118.648C213.132 118.626 213.149 118.571 213.123 118.528C213.08 118.457 213.145 118.377 213.22 118.401C213.36 118.448 213.491 118.481 213.598 118.502C213.667 118.515 213.725 118.451 213.706 118.384C213.62 118.055 213.338 117.468 213.003 117.18C212.971 117.148 212.96 117.103 212.975 117.062Z" fill="#75AE47"/>
<path d="M210.288 117.349C210.496 117.424 210.694 117.478 210.844 117.505C210.913 117.518 210.973 117.454 210.956 117.385C210.865 117.012 210.535 116.327 210.146 116.001C210.114 115.975 210.103 115.932 210.118 115.895C210.232 115.589 210.296 115.234 210.326 115.022C210.333 114.964 210.288 114.912 210.229 114.91C210.116 114.908 209.991 114.932 209.864 114.973C209.832 114.985 209.798 114.977 209.772 114.957C209.708 114.904 209.639 114.855 209.566 114.816C209.521 114.79 209.505 114.732 209.529 114.685C209.632 114.485 209.705 114.253 209.738 114.08C209.751 114.017 209.699 113.959 209.636 113.964C209.551 113.97 209.454 113.99 209.353 114.022C209.314 114.034 209.273 114.02 209.248 113.989C209.143 113.856 209.001 113.73 208.848 113.633C208.801 113.603 208.786 113.543 208.816 113.498C208.913 113.343 208.994 113.17 209.056 113.008C209.136 112.794 208.947 112.575 208.724 112.62C208.519 112.661 208.292 112.74 208.096 112.843C208.058 112.862 208.015 112.856 207.984 112.828C207.823 112.68 207.581 112.568 207.334 112.504C207.282 112.491 207.25 112.438 207.263 112.386C207.295 112.251 207.319 112.114 207.336 111.989C207.366 111.759 207.144 111.583 206.934 111.665C206.818 111.71 206.704 111.774 206.607 111.851C206.283 112.109 206.631 112.397 206.573 112.639C206.491 112.985 206.274 113.305 206.096 113.609C205.778 114.151 202.07 115.775 201.584 116.447C201.572 116.464 201.556 116.473 201.537 116.481C201.385 116.531 201.258 116.598 201.152 116.677C200.852 116.9 201.019 117.381 201.393 117.372C201.544 117.368 201.683 117.357 201.782 117.344C201.844 117.336 201.898 117.389 201.89 117.45C201.877 117.555 201.874 117.664 201.876 117.771C201.876 117.814 201.849 117.851 201.808 117.864C201.778 117.875 201.748 117.885 201.722 117.896C201.666 117.918 201.644 117.988 201.677 118.04C201.829 118.278 202.036 118.433 202.24 118.491C202.283 118.504 202.311 118.544 202.308 118.589C202.289 118.909 202.47 119.33 202.695 119.521C202.744 119.562 202.817 119.545 202.845 119.489C202.876 119.426 202.912 119.351 202.949 119.268C202.974 119.212 203.043 119.193 203.093 119.227C203.202 119.3 203.335 119.384 203.473 119.457C203.655 119.553 203.724 119.776 203.636 119.961C203.57 120.101 203.52 120.242 203.496 120.352C203.483 120.408 203.524 120.465 203.582 120.47C203.761 120.485 203.99 120.452 204.184 120.369C204.233 120.349 204.287 120.373 204.309 120.42C204.431 120.689 204.611 120.951 204.747 121.111C204.794 121.165 204.884 121.152 204.91 121.084C204.957 120.97 205.003 120.811 205.039 120.639C205.05 120.584 205.103 120.551 205.157 120.562C205.239 120.581 205.321 120.592 205.402 120.598C205.456 120.601 205.497 120.646 205.494 120.701C205.469 121.097 205.527 121.528 205.595 121.788C205.611 121.856 205.694 121.884 205.748 121.841C206.047 121.601 206.534 121.013 206.667 120.521C206.678 120.481 206.711 120.453 206.751 120.45C207.162 120.414 207.81 120.234 207.905 120.139C207.991 120.051 207.952 119.622 207.871 119.306C207.855 119.238 207.909 119.175 207.976 119.182C208.534 119.244 208.998 119.167 209.263 119.139C209.316 119.133 209.353 119.089 209.351 119.036C209.336 118.772 209.304 118.33 209.187 117.986C209.166 117.926 209.205 117.86 209.271 117.857C209.587 117.832 209.933 117.731 210.135 117.63C210.186 117.604 210.204 117.542 210.174 117.493C210.122 117.413 210.2 117.317 210.288 117.349Z" fill="#96C14D"/>
<path d="M208.979 114.472C208.85 114.442 208.7 114.419 208.535 114.416C208.491 114.414 208.451 114.382 208.442 114.339C208.412 114.21 208.337 114.06 208.236 113.94C208.202 113.901 208.206 113.841 208.246 113.805C208.391 113.667 208.521 113.502 208.603 113.373C208.644 113.307 208.599 113.223 208.522 113.221C208.337 113.215 208.066 113.244 207.84 113.317C207.757 113.343 207.682 113.259 207.72 113.18C207.752 113.111 207.776 113.051 207.789 113C207.8 112.963 207.785 112.922 207.755 112.897C207.639 112.804 207.454 112.742 207.269 112.727C207.218 112.723 207.181 112.68 207.179 112.631C207.175 112.513 207.147 112.375 207.116 112.248C207.061 112.034 206.837 111.914 206.629 111.987C206.549 112.015 206.461 112.051 206.373 112.094C206.18 112.189 205.954 112.169 205.776 112.047C205.77 112.043 205.765 112.04 205.759 112.036C205.518 111.875 205.204 112.077 205.243 112.364C205.267 112.541 205.301 112.691 205.327 112.783C205.342 112.834 205.312 112.886 205.264 112.903C205.183 112.929 205.06 112.978 204.942 113.066C204.85 113.135 204.7 113.129 204.611 113.056C204.42 112.903 204.147 113.054 204.169 113.29C204.175 113.343 204.182 113.397 204.193 113.449C204.214 113.554 204.173 113.665 204.085 113.725C204.081 113.727 204.079 113.728 204.076 113.73C203.969 113.801 203.827 113.781 203.737 113.689C203.671 113.622 203.602 113.558 203.533 113.498C203.32 113.313 202.989 113.453 202.97 113.734C202.964 113.82 202.966 113.91 202.976 113.996C202.981 114.05 202.944 114.099 202.889 114.107C202.837 114.112 202.785 114.122 202.734 114.133C202.373 114.204 202.293 114.685 202.609 114.874C202.654 114.9 202.699 114.927 202.745 114.949C202.846 115 202.861 115.138 202.772 115.208C202.717 115.249 202.648 115.252 202.594 115.219C202.362 115.073 201.992 115.02 201.722 115.076C201.582 115.106 201.507 115.264 201.572 115.391C201.574 115.395 201.576 115.4 201.58 115.404C201.623 115.485 201.614 115.586 201.554 115.655C201.498 115.719 201.442 115.794 201.393 115.87C201.266 116.065 201.427 116.32 201.657 116.293C201.782 116.278 201.902 116.26 201.992 116.241C202.048 116.23 202.1 116.267 202.109 116.323C202.134 116.49 202.235 116.793 202.42 116.917C202.469 116.949 202.478 117.012 202.444 117.057C202.36 117.17 202.298 117.323 202.267 117.473C202.225 117.675 202.442 117.831 202.624 117.729C202.686 117.696 202.747 117.656 202.805 117.615C202.871 117.568 202.961 117.619 202.961 117.698C202.953 118.068 203.015 118.379 203.108 118.624C203.202 118.871 203.526 118.92 203.698 118.72C203.789 118.613 203.902 118.521 204.034 118.463C204.07 118.448 204.109 118.456 204.137 118.48C204.257 118.585 204.448 118.677 204.639 118.716C204.691 118.727 204.725 118.776 204.715 118.828C204.695 118.954 204.687 119.085 204.685 119.207C204.684 119.418 204.938 119.527 205.09 119.383C205.258 119.222 205.432 119.016 205.524 118.819C205.548 118.767 205.61 118.746 205.66 118.772C205.868 118.881 206.036 118.939 206.18 118.965C206.416 119.008 206.653 118.901 206.779 118.697C206.893 118.516 207.003 118.276 207.03 118.074C207.035 118.035 207.061 118.003 207.099 117.992C207.464 117.889 207.782 117.63 207.963 117.359C207.993 117.314 208.053 117.303 208.098 117.333C208.163 117.376 208.231 117.415 208.3 117.452C208.601 117.615 208.938 117.303 208.799 116.99C208.741 116.857 208.67 116.724 208.593 116.608C208.489 116.453 208.464 116.252 208.53 116.076C208.547 116.029 208.564 115.981 208.577 115.936C208.592 115.889 208.638 115.861 208.687 115.868C208.751 115.88 208.807 115.833 208.807 115.771C208.807 115.618 208.764 115.43 208.685 115.271C208.663 115.224 208.681 115.166 208.728 115.142C208.852 115.075 208.971 114.994 209.076 114.915C209.243 114.786 209.187 114.52 208.979 114.472Z" fill="#A3CA4D"/>
</g>
<rect x="73" width="179" height="30" rx="15" fill="#00ECA0"/>
<path d="M93.994 20V10.2H97.424C98.1893 10.2 98.824 10.3307 99.328 10.592C99.832 10.844 100.205 11.194 100.448 11.642C100.7 12.0807 100.826 12.58 100.826 13.14C100.826 13.672 100.705 14.162 100.462 14.61C100.229 15.0487 99.86 15.3987 99.356 15.66C98.852 15.9213 98.208 16.052 97.424 16.052H95.478V20H93.994ZM95.478 14.834H97.354C98.054 14.834 98.5533 14.6847 98.852 14.386C99.16 14.078 99.314 13.6627 99.314 13.14C99.314 12.5987 99.16 12.1787 98.852 11.88C98.5533 11.572 98.054 11.418 97.354 11.418H95.478V14.834ZM102.237 20V13.056H103.567L103.693 14.372C103.935 13.9147 104.271 13.5553 104.701 13.294C105.139 13.0233 105.667 12.888 106.283 12.888V14.442H105.877C105.466 14.442 105.097 14.512 104.771 14.652C104.453 14.7827 104.197 15.0113 104.001 15.338C103.814 15.6553 103.721 16.0987 103.721 16.668V20H102.237ZM110.612 20.168C109.93 20.168 109.324 20.0187 108.792 19.72C108.269 19.412 107.858 18.9873 107.56 18.446C107.261 17.9047 107.112 17.2747 107.112 16.556C107.112 15.828 107.256 15.1887 107.546 14.638C107.844 14.0873 108.255 13.658 108.778 13.35C109.31 13.042 109.926 12.888 110.626 12.888C111.307 12.888 111.9 13.042 112.404 13.35C112.908 13.6487 113.3 14.05 113.58 14.554C113.86 15.058 114 15.6133 114 16.22C114 16.3133 113.995 16.416 113.986 16.528C113.986 16.6307 113.981 16.7473 113.972 16.878H108.568C108.614 17.55 108.834 18.0633 109.226 18.418C109.627 18.7633 110.089 18.936 110.612 18.936C111.032 18.936 111.382 18.8427 111.662 18.656C111.951 18.46 112.166 18.1987 112.306 17.872H113.79C113.603 18.5253 113.23 19.0713 112.67 19.51C112.119 19.9487 111.433 20.168 110.612 20.168ZM110.612 14.106C110.117 14.106 109.678 14.2553 109.296 14.554C108.913 14.8433 108.68 15.282 108.596 15.87H112.516C112.488 15.3287 112.296 14.8993 111.942 14.582C111.587 14.2647 111.144 14.106 110.612 14.106ZM118.312 20.168C117.434 20.168 116.711 19.9533 116.142 19.524C115.572 19.0947 115.246 18.5253 115.162 17.816H116.66C116.734 18.1333 116.912 18.4087 117.192 18.642C117.472 18.866 117.84 18.978 118.298 18.978C118.746 18.978 119.072 18.8847 119.278 18.698C119.483 18.5113 119.586 18.2967 119.586 18.054C119.586 17.6993 119.441 17.4613 119.152 17.34C118.872 17.2093 118.48 17.0927 117.976 16.99C117.584 16.906 117.192 16.794 116.8 16.654C116.417 16.514 116.095 16.318 115.834 16.066C115.582 15.8047 115.456 15.4547 115.456 15.016C115.456 14.4093 115.689 13.9053 116.156 13.504C116.622 13.0933 117.276 12.888 118.116 12.888C118.89 12.888 119.516 13.0747 119.992 13.448C120.477 13.8213 120.762 14.3487 120.846 15.03H119.418C119.371 14.7313 119.231 14.498 118.998 14.33C118.774 14.162 118.47 14.078 118.088 14.078C117.714 14.078 117.425 14.1573 117.22 14.316C117.014 14.4653 116.912 14.6613 116.912 14.904C116.912 15.1467 117.052 15.338 117.332 15.478C117.621 15.618 117.999 15.744 118.466 15.856C118.932 15.9587 119.362 16.08 119.754 16.22C120.155 16.3507 120.477 16.5467 120.72 16.808C120.962 17.0693 121.084 17.452 121.084 17.956C121.093 18.5907 120.846 19.118 120.342 19.538C119.847 19.958 119.17 20.168 118.312 20.168ZM125.356 20C124.675 20 124.133 19.8367 123.732 19.51C123.331 19.174 123.13 18.5813 123.13 17.732V14.302H121.94V13.056H123.13L123.312 11.292H124.614V13.056H126.574V14.302H124.614V17.732C124.614 18.1147 124.693 18.3807 124.852 18.53C125.02 18.67 125.305 18.74 125.706 18.74H126.504V20H125.356ZM130.456 20.168C129.868 20.168 129.383 20.07 129 19.874C128.617 19.678 128.333 19.4213 128.146 19.104C127.959 18.7773 127.866 18.4227 127.866 18.04C127.866 17.368 128.127 16.836 128.65 16.444C129.173 16.052 129.919 15.856 130.89 15.856H132.71V15.73C132.71 15.1887 132.561 14.7827 132.262 14.512C131.973 14.2413 131.595 14.106 131.128 14.106C130.717 14.106 130.358 14.2087 130.05 14.414C129.751 14.61 129.569 14.904 129.504 15.296H128.02C128.067 14.792 128.235 14.3627 128.524 14.008C128.823 13.644 129.196 13.3687 129.644 13.182C130.101 12.986 130.601 12.888 131.142 12.888C132.113 12.888 132.864 13.1447 133.396 13.658C133.928 14.162 134.194 14.8527 134.194 15.73V20H132.906L132.78 18.81C132.584 19.1927 132.299 19.5147 131.926 19.776C131.553 20.0373 131.063 20.168 130.456 20.168ZM130.75 18.964C131.151 18.964 131.487 18.8707 131.758 18.684C132.038 18.488 132.253 18.2313 132.402 17.914C132.561 17.5967 132.659 17.2467 132.696 16.864H131.044C130.456 16.864 130.036 16.9667 129.784 17.172C129.541 17.3773 129.42 17.634 129.42 17.942C129.42 18.2593 129.537 18.5113 129.77 18.698C130.013 18.8753 130.339 18.964 130.75 18.964ZM139.088 20.168C138.416 20.168 137.824 20.0093 137.31 19.692C136.797 19.3747 136.396 18.9407 136.106 18.39C135.817 17.8393 135.672 17.214 135.672 16.514C135.672 15.814 135.817 15.1933 136.106 14.652C136.396 14.1013 136.797 13.672 137.31 13.364C137.833 13.0467 138.43 12.888 139.102 12.888C139.653 12.888 140.134 12.9953 140.544 13.21C140.964 13.4247 141.291 13.728 141.524 14.12V9.92H143.008V20H141.678L141.524 18.922C141.3 19.2487 140.992 19.538 140.6 19.79C140.208 20.042 139.704 20.168 139.088 20.168ZM139.354 18.88C139.989 18.88 140.507 18.6607 140.908 18.222C141.319 17.7833 141.524 17.2187 141.524 16.528C141.524 15.828 141.319 15.2633 140.908 14.834C140.507 14.3953 139.989 14.176 139.354 14.176C138.72 14.176 138.197 14.3953 137.786 14.834C137.376 15.2633 137.17 15.828 137.17 16.528C137.17 16.9853 137.264 17.3913 137.45 17.746C137.637 18.1007 137.894 18.3807 138.22 18.586C138.556 18.782 138.934 18.88 139.354 18.88ZM148.127 20.168C147.465 20.168 146.867 20.0187 146.335 19.72C145.813 19.412 145.397 18.9873 145.089 18.446C144.781 17.8953 144.627 17.256 144.627 16.528C144.627 15.8 144.781 15.1653 145.089 14.624C145.407 14.0733 145.831 13.6487 146.363 13.35C146.895 13.042 147.488 12.888 148.141 12.888C148.804 12.888 149.397 13.042 149.919 13.35C150.451 13.6487 150.871 14.0733 151.179 14.624C151.497 15.1653 151.655 15.8 151.655 16.528C151.655 17.256 151.497 17.8953 151.179 18.446C150.871 18.9873 150.451 19.412 149.919 19.72C149.387 20.0187 148.79 20.168 148.127 20.168ZM148.127 18.894C148.482 18.894 148.809 18.8053 149.107 18.628C149.415 18.4507 149.663 18.1893 149.849 17.844C150.036 17.4893 150.129 17.0507 150.129 16.528C150.129 16.0053 150.036 15.5713 149.849 15.226C149.672 14.8713 149.429 14.6053 149.121 14.428C148.823 14.2507 148.496 14.162 148.141 14.162C147.787 14.162 147.455 14.2507 147.147 14.428C146.849 14.6053 146.606 14.8713 146.419 15.226C146.233 15.5713 146.139 16.0053 146.139 16.528C146.139 17.0507 146.233 17.4893 146.419 17.844C146.606 18.1893 146.849 18.4507 147.147 18.628C147.446 18.8053 147.773 18.894 148.127 18.894ZM153.26 20V13.056H154.59L154.716 14.372C154.959 13.9147 155.295 13.5553 155.724 13.294C156.163 13.0233 156.69 12.888 157.306 12.888V14.442H156.9C156.49 14.442 156.121 14.512 155.794 14.652C155.477 14.7827 155.22 15.0113 155.024 15.338C154.838 15.6553 154.744 16.0987 154.744 16.668V20H153.26ZM165.27 20.168C164.598 20.168 164.005 20.0093 163.492 19.692C162.979 19.3747 162.577 18.9407 162.288 18.39C161.999 17.8393 161.854 17.214 161.854 16.514C161.854 15.814 161.999 15.1933 162.288 14.652C162.577 14.1013 162.979 13.672 163.492 13.364C164.015 13.0467 164.612 12.888 165.284 12.888C165.835 12.888 166.315 12.9953 166.726 13.21C167.146 13.4247 167.473 13.728 167.706 14.12V9.92H169.19V20H167.86L167.706 18.922C167.482 19.2487 167.174 19.538 166.782 19.79C166.39 20.042 165.886 20.168 165.27 20.168ZM165.536 18.88C166.171 18.88 166.689 18.6607 167.09 18.222C167.501 17.7833 167.706 17.2187 167.706 16.528C167.706 15.828 167.501 15.2633 167.09 14.834C166.689 14.3953 166.171 14.176 165.536 14.176C164.901 14.176 164.379 14.3953 163.968 14.834C163.557 15.2633 163.352 15.828 163.352 16.528C163.352 16.9853 163.445 17.3913 163.632 17.746C163.819 18.1007 164.075 18.3807 164.402 18.586C164.738 18.782 165.116 18.88 165.536 18.88ZM174.309 20.168C173.628 20.168 173.021 20.0187 172.489 19.72C171.966 19.412 171.556 18.9873 171.257 18.446C170.958 17.9047 170.809 17.2747 170.809 16.556C170.809 15.828 170.954 15.1887 171.243 14.638C171.542 14.0873 171.952 13.658 172.475 13.35C173.007 13.042 173.623 12.888 174.323 12.888C175.004 12.888 175.597 13.042 176.101 13.35C176.605 13.6487 176.997 14.05 177.277 14.554C177.557 15.058 177.697 15.6133 177.697 16.22C177.697 16.3133 177.692 16.416 177.683 16.528C177.683 16.6307 177.678 16.7473 177.669 16.878H172.265C172.312 17.55 172.531 18.0633 172.923 18.418C173.324 18.7633 173.786 18.936 174.309 18.936C174.729 18.936 175.079 18.8427 175.359 18.656C175.648 18.46 175.863 18.1987 176.003 17.872H177.487C177.3 18.5253 176.927 19.0713 176.367 19.51C175.816 19.9487 175.13 20.168 174.309 20.168ZM174.309 14.106C173.814 14.106 173.376 14.2553 172.993 14.554C172.61 14.8433 172.377 15.282 172.293 15.87H176.213C176.185 15.3287 175.994 14.8993 175.639 14.582C175.284 14.2647 174.841 14.106 174.309 14.106ZM186.054 20.168C185.336 20.168 184.706 20.042 184.164 19.79C183.623 19.538 183.198 19.1787 182.89 18.712C182.592 18.2453 182.438 17.69 182.428 17.046H183.996C184.006 17.5687 184.188 18.012 184.542 18.376C184.897 18.74 185.396 18.922 186.04 18.922C186.61 18.922 187.053 18.7867 187.37 18.516C187.697 18.236 187.86 17.8813 187.86 17.452C187.86 17.1067 187.781 16.8267 187.622 16.612C187.473 16.3973 187.263 16.22 186.992 16.08C186.731 15.94 186.428 15.814 186.082 15.702C185.737 15.59 185.373 15.4687 184.99 15.338C184.234 15.086 183.665 14.7593 183.282 14.358C182.909 13.9567 182.722 13.4293 182.722 12.776C182.713 12.2253 182.839 11.7447 183.1 11.334C183.371 10.9233 183.744 10.606 184.22 10.382C184.706 10.1487 185.27 10.032 185.914 10.032C186.549 10.032 187.104 10.1487 187.58 10.382C188.066 10.6153 188.444 10.942 188.714 11.362C188.985 11.7727 189.125 12.2533 189.134 12.804H187.566C187.566 12.552 187.501 12.314 187.37 12.09C187.24 11.8567 187.048 11.6653 186.796 11.516C186.544 11.3667 186.236 11.292 185.872 11.292C185.406 11.2827 185.018 11.3993 184.71 11.642C184.412 11.8847 184.262 12.2207 184.262 12.65C184.262 13.0327 184.374 13.3267 184.598 13.532C184.822 13.7373 185.13 13.91 185.522 14.05C185.914 14.1807 186.362 14.3347 186.866 14.512C187.352 14.6707 187.786 14.862 188.168 15.086C188.551 15.31 188.854 15.604 189.078 15.968C189.312 16.332 189.428 16.794 189.428 17.354C189.428 17.8487 189.302 18.3107 189.05 18.74C188.798 19.16 188.42 19.5053 187.916 19.776C187.412 20.0373 186.792 20.168 186.054 20.168ZM194.243 20.168C193.561 20.168 192.955 20.0187 192.423 19.72C191.9 19.412 191.489 18.9873 191.191 18.446C190.892 17.9047 190.743 17.2747 190.743 16.556C190.743 15.828 190.887 15.1887 191.177 14.638C191.475 14.0873 191.886 13.658 192.409 13.35C192.941 13.042 193.557 12.888 194.257 12.888C194.938 12.888 195.531 13.042 196.035 13.35C196.539 13.6487 196.931 14.05 197.211 14.554C197.491 15.058 197.631 15.6133 197.631 16.22C197.631 16.3133 197.626 16.416 197.617 16.528C197.617 16.6307 197.612 16.7473 197.603 16.878H192.199C192.245 17.55 192.465 18.0633 192.857 18.418C193.258 18.7633 193.72 18.936 194.243 18.936C194.663 18.936 195.013 18.8427 195.293 18.656C195.582 18.46 195.797 18.1987 195.937 17.872H197.421C197.234 18.5253 196.861 19.0713 196.301 19.51C195.75 19.9487 195.064 20.168 194.243 20.168ZM194.243 14.106C193.748 14.106 193.309 14.2553 192.927 14.554C192.544 14.8433 192.311 15.282 192.227 15.87H196.147C196.119 15.3287 195.927 14.8993 195.573 14.582C195.218 14.2647 194.775 14.106 194.243 14.106ZM199.17 20V13.056H200.5L200.626 14.372C200.869 13.9147 201.205 13.5553 201.634 13.294C202.073 13.0233 202.6 12.888 203.216 12.888V14.442H202.81C202.4 14.442 202.031 14.512 201.704 14.652C201.387 14.7827 201.13 15.0113 200.934 15.338C200.748 15.6553 200.654 16.0987 200.654 16.668V20H199.17ZM206.435 20L203.831 13.056H205.385L207.317 18.586L209.249 13.056H210.789L208.199 20H206.435ZM212.848 11.74C212.568 11.74 212.335 11.656 212.148 11.488C211.971 11.3107 211.882 11.0913 211.882 10.83C211.882 10.5687 211.971 10.354 212.148 10.186C212.335 10.0087 212.568 9.92 212.848 9.92C213.128 9.92 213.357 10.0087 213.534 10.186C213.721 10.354 213.814 10.5687 213.814 10.83C213.814 11.0913 213.721 11.3107 213.534 11.488C213.357 11.656 213.128 11.74 212.848 11.74ZM212.106 20V13.056H213.59V20H212.106ZM218.839 20.168C218.158 20.168 217.547 20.014 217.005 19.706C216.473 19.398 216.053 18.9733 215.745 18.432C215.447 17.8813 215.297 17.2467 215.297 16.528C215.297 15.8093 215.447 15.1793 215.745 14.638C216.053 14.0873 216.473 13.658 217.005 13.35C217.547 13.042 218.158 12.888 218.839 12.888C219.698 12.888 220.417 13.112 220.995 13.56C221.583 14.008 221.961 14.6147 222.129 15.38H220.575C220.482 14.9973 220.277 14.6987 219.959 14.484C219.642 14.2693 219.269 14.162 218.839 14.162C218.475 14.162 218.139 14.2553 217.831 14.442C217.523 14.6193 217.276 14.8853 217.089 15.24C216.903 15.5853 216.809 16.0147 216.809 16.528C216.809 17.0413 216.903 17.4753 217.089 17.83C217.276 18.1753 217.523 18.4413 217.831 18.628C218.139 18.8147 218.475 18.908 218.839 18.908C219.269 18.908 219.642 18.8007 219.959 18.586C220.277 18.3713 220.482 18.068 220.575 17.676H222.129C221.971 18.4227 221.597 19.0247 221.009 19.482C220.421 19.9393 219.698 20.168 218.839 20.168ZM217.705 23.682V22.786H219.133C219.703 22.786 219.987 22.59 219.987 22.198C219.987 21.834 219.703 21.652 219.133 21.652H218.363V19.93H219.315V20.812C219.819 20.8027 220.244 20.9147 220.589 21.148C220.944 21.3813 221.121 21.7407 221.121 22.226C221.121 22.702 220.949 23.0613 220.603 23.304C220.267 23.556 219.857 23.682 219.371 23.682H217.705ZM226.987 20.168C226.324 20.168 225.727 20.0187 225.195 19.72C224.672 19.412 224.257 18.9873 223.949 18.446C223.641 17.8953 223.487 17.256 223.487 16.528C223.487 15.8 223.641 15.1653 223.949 14.624C224.266 14.0733 224.691 13.6487 225.223 13.35C225.755 13.042 226.347 12.888 227.001 12.888C227.663 12.888 228.256 13.042 228.779 13.35C229.311 13.6487 229.731 14.0733 230.039 14.624C230.356 15.1653 230.515 15.8 230.515 16.528C230.515 17.256 230.356 17.8953 230.039 18.446C229.731 18.9873 229.311 19.412 228.779 19.72C228.247 20.0187 227.649 20.168 226.987 20.168ZM226.987 18.894C227.341 18.894 227.668 18.8053 227.967 18.628C228.275 18.4507 228.522 18.1893 228.709 17.844C228.895 17.4893 228.989 17.0507 228.989 16.528C228.989 16.0053 228.895 15.5713 228.709 15.226C228.531 14.8713 228.289 14.6053 227.981 14.428C227.682 14.2507 227.355 14.162 227.001 14.162C226.646 14.162 226.315 14.2507 226.007 14.428C225.708 14.6053 225.465 14.8713 225.279 15.226C225.092 15.5713 224.999 16.0053 224.999 16.528C224.999 17.0507 225.092 17.4893 225.279 17.844C225.465 18.1893 225.708 18.4507 226.007 18.628C226.305 18.8053 226.632 18.894 226.987 18.894Z" fill="#171717"/>
<defs>
<linearGradient id="paint0_linear_2036_6281" x1="326" y1="166" x2="78" y2="166" gradientUnits="userSpaceOnUse">
<stop stop-color="#1AA8F1"/>
<stop offset="1" stop-color="#1AA8F1" stop-opacity="0"/>
</linearGradient>
<linearGradient id="paint1_linear_2036_6281" x1="254" y1="51" x2="6" y2="51" gradientUnits="userSpaceOnUse">
<stop stop-color="#1AA8F1" stop-opacity="0"/>
<stop offset="1" stop-color="#1AA8F1"/>
</linearGradient>
<clipPath id="clip0_2036_6281">
<rect width="134" height="139" fill="white" transform="translate(95 49)"/>
</clipPath>
</defs>
</svg>
